<svg width="128" height="128" viewBox="0 0 128 128" fill="none" xmlns="http://www.w3.org/2000/svg">
<mask id="mask0_55_110" style="mask-type:luminance" maskUnits="userSpaceOnUse" x="14" y="11" width="100" height="106">
<path d="M14 11H114V116.83H14V11Z" fill="white"/>
</mask>
<g mask="url(#mask0_55_110)">
<path d="M113.586 28.5749L109.99 85.0426L75.6085 11L113.586 28.5749ZM89.7722 101.591L63.7933 116.414L37.8139 101.591L43.0978 88.7852H84.4883L89.7722 101.591ZM63.7933 39.1054L77.4063 72.2009H50.1798L63.7933 39.1054ZM17.5592 85.0426L14 28.5749L51.9776 11L17.5592 85.0426Z" fill="url(#paint0_linear_55_110)"/>
<path d="M113.586 28.5749L109.99 85.0426L75.6085 11L113.586 28.5749ZM89.7722 101.591L63.7933 116.414L37.8139 101.591L43.0978 88.7852H84.4883L89.7722 101.591ZM63.7933 39.1054L77.4063 72.2009H50.1798L63.7933 39.1054ZM17.5592 85.0426L14 28.5749L51.9776 11L17.5592 85.0426Z" fill="url(#paint1_linear_55_110)"/>
</g>
<defs>
<linearGradient id="paint0_linear_55_110" x1="35.9771" y1="106.852" x2="115.269" y2="69.1713" gradientUnits="userSpaceOnUse">
<stop stop-color="#E40035"/>
<stop offset="0.24" stop-color="#F60A48"/>
<stop offset="0.352" stop-color="#F20755"/>
<stop offset="0.494" stop-color="#DC087D"/>
<stop offset="0.745" stop-color="#9717E7"/>
<stop offset="1" stop-color="#6C00F5"/>
</linearGradient>
<linearGradient id="paint1_linear_55_110" x1="32.3969" y1="23.7103" x2="84.2874" y2="82.9031" gradientUnits="userSpaceOnUse">
<stop stop-color="#FF31D9"/>
<stop offset="1" stop-color="#FF5BE1" stop-opacity="0"/>
</linearGradient>
</defs>
</svg>
