<svg width="128" height="128" viewBox="0 0 128 128" fill="none" xmlns="http://www.w3.org/2000/svg">
<path d="M38.0508 15H90.7383C103.469 15 113.789 25.3202 113.789 38.0508V90.7383C113.789 103.469 103.469 113.789 90.7383 113.789H38.0508C25.3202 113.789 15 103.469 15 90.7383V38.0508C15 25.3202 25.3202 15 38.0508 15Z" fill="white"/>
<path d="M38.0508 15H90.7383C103.469 15 113.789 25.3202 113.789 38.0508V90.7383C113.789 103.469 103.469 113.789 90.7383 113.789H38.0508C25.3202 113.789 15 103.469 15 90.7383V38.0508C15 25.3202 25.3202 15 38.0508 15Z" fill="#F9F9F9"/>
<path d="M15 38.0508V39.6973H113.789V38.0508C113.789 25.3202 103.469 15 90.7383 15H38.0508C25.3213 15 15 25.3202 15 38.0508Z" fill="url(#paint0_linear_52_190)"/>
<path d="M24.4695 46.2832C25.1515 46.2832 25.7043 45.7303 25.7043 45.0483C25.7043 44.3663 25.1515 43.8135 24.4695 43.8135C23.7875 43.8135 23.2346 44.3663 23.2346 45.0483C23.2346 45.7303 23.7875 46.2832 24.4695 46.2832Z" fill="#C2C0C4"/>
<path d="M28.5857 46.2832C29.2677 46.2832 29.8206 45.7303 29.8206 45.0483C29.8206 44.3663 29.2677 43.8135 28.5857 43.8135C27.9037 43.8135 27.3508 44.3663 27.3508 45.0483C27.3508 45.7303 27.9037 46.2832 28.5857 46.2832Z" fill="#C2C0C4"/>
<path d="M32.7019 46.2832C33.3839 46.2832 33.9368 45.7303 33.9368 45.0483C33.9368 44.3663 33.3839 43.8135 32.7019 43.8135C32.0199 43.8135 31.467 44.3663 31.467 45.0483C31.467 45.7303 32.0199 46.2832 32.7019 46.2832Z" fill="#C2C0C4"/>
<path d="M36.8181 46.2832C37.5001 46.2832 38.053 45.7303 38.053 45.0483C38.053 44.3663 37.5001 43.8135 36.8181 43.8135C36.1361 43.8135 35.5833 44.3663 35.5833 45.0483C35.5833 45.7303 36.1361 46.2832 36.8181 46.2832Z" fill="#C2C0C4"/>
<path d="M40.9343 46.2832C41.6163 46.2832 42.1692 45.7303 42.1692 45.0483C42.1692 44.3663 41.6163 43.8135 40.9343 43.8135C40.2523 43.8135 39.6995 44.3663 39.6995 45.0483C39.6995 45.7303 40.2523 46.2832 40.9343 46.2832Z" fill="#C2C0C4"/>
<path d="M45.0505 46.2832C45.7325 46.2832 46.2854 45.7303 46.2854 45.0483C46.2854 44.3663 45.7325 43.8135 45.0505 43.8135C44.3685 43.8135 43.8157 44.3663 43.8157 45.0483C43.8157 45.7303 44.3685 46.2832 45.0505 46.2832Z" fill="#C2C0C4"/>
<path d="M49.1667 46.2832C49.8487 46.2832 50.4016 45.7303 50.4016 45.0483C50.4016 44.3663 49.8487 43.8135 49.1667 43.8135C48.4848 43.8135 47.9319 44.3663 47.9319 45.0483C47.9319 45.7303 48.4848 46.2832 49.1667 46.2832Z" fill="#C2C0C4"/>
<path d="M53.283 46.2832C53.965 46.2832 54.5178 45.7303 54.5178 45.0483C54.5178 44.3663 53.965 43.8135 53.283 43.8135C52.601 43.8135 52.0481 44.3663 52.0481 45.0483C52.0481 45.7303 52.601 46.2832 53.283 46.2832Z" fill="#C2C0C4"/>
<path d="M57.3992 46.2832C58.0812 46.2832 58.634 45.7303 58.634 45.0483C58.634 44.3663 58.0812 43.8135 57.3992 43.8135C56.7172 43.8135 56.1643 44.3663 56.1643 45.0483C56.1643 45.7303 56.7172 46.2832 57.3992 46.2832Z" fill="#C2C0C4"/>
<path d="M61.5154 46.2832C62.1974 46.2832 62.7502 45.7303 62.7502 45.0483C62.7502 44.3663 62.1974 43.8135 61.5154 43.8135C60.8334 43.8135 60.2805 44.3663 60.2805 45.0483C60.2805 45.7303 60.8334 46.2832 61.5154 46.2832Z" fill="#C2C0C4"/>
<path d="M65.6316 46.2832C66.3136 46.2832 66.8665 45.7303 66.8665 45.0483C66.8665 44.3663 66.3136 43.8135 65.6316 43.8135C64.9496 43.8135 64.3967 44.3663 64.3967 45.0483C64.3967 45.7303 64.9496 46.2832 65.6316 46.2832Z" fill="#C2C0C4"/>
<path d="M69.7478 46.2832C70.4298 46.2832 70.9827 45.7303 70.9827 45.0483C70.9827 44.3663 70.4298 43.8135 69.7478 43.8135C69.0658 43.8135 68.5129 44.3663 68.5129 45.0483C68.5129 45.7303 69.0658 46.2832 69.7478 46.2832Z" fill="#C2C0C4"/>
<path d="M73.864 46.2832C74.546 46.2832 75.0989 45.7303 75.0989 45.0483C75.0989 44.3663 74.546 43.8135 73.864 43.8135C73.182 43.8135 72.6292 44.3663 72.6292 45.0483C72.6292 45.7303 73.182 46.2832 73.864 46.2832Z" fill="#C2C0C4"/>
<path d="M77.9802 46.2832C78.6622 46.2832 79.2151 45.7303 79.2151 45.0483C79.2151 44.3663 78.6622 43.8135 77.9802 43.8135C77.2982 43.8135 76.7454 44.3663 76.7454 45.0483C76.7454 45.7303 77.2982 46.2832 77.9802 46.2832Z" fill="#C2C0C4"/>
<path d="M82.0964 46.2832C82.7784 46.2832 83.3313 45.7303 83.3313 45.0483C83.3313 44.3663 82.7784 43.8135 82.0964 43.8135C81.4144 43.8135 80.8616 44.3663 80.8616 45.0483C80.8616 45.7303 81.4144 46.2832 82.0964 46.2832Z" fill="#C2C0C4"/>
<path d="M86.2126 46.2832C86.8946 46.2832 87.4475 45.7303 87.4475 45.0483C87.4475 44.3663 86.8946 43.8135 86.2126 43.8135C85.5307 43.8135 84.9778 44.3663 84.9778 45.0483C84.9778 45.7303 85.5307 46.2832 86.2126 46.2832Z" fill="#C2C0C4"/>
<path d="M90.3289 46.2832C91.0109 46.2832 91.5637 45.7303 91.5637 45.0483C91.5637 44.3663 91.0109 43.8135 90.3289 43.8135C89.6469 43.8135 89.094 44.3663 89.094 45.0483C89.094 45.7303 89.6469 46.2832 90.3289 46.2832Z" fill="#C2C0C4"/>
<path d="M94.4451 46.2832C95.1271 46.2832 95.6799 45.7303 95.6799 45.0483C95.6799 44.3663 95.1271 43.8135 94.4451 43.8135C93.7631 43.8135 93.2102 44.3663 93.2102 45.0483C93.2102 45.7303 93.7631 46.2832 94.4451 46.2832Z" fill="#C2C0C4"/>
<path d="M98.5613 46.2832C99.2433 46.2832 99.7961 45.7303 99.7961 45.0483C99.7961 44.3663 99.2433 43.8135 98.5613 43.8135C97.8793 43.8135 97.3264 44.3663 97.3264 45.0483C97.3264 45.7303 97.8793 46.2832 98.5613 46.2832Z" fill="#C2C0C4"/>
<path d="M102.677 46.2832C103.359 46.2832 103.912 45.7303 103.912 45.0483C103.912 44.3663 103.359 43.8135 102.677 43.8135C101.995 43.8135 101.443 44.3663 101.443 45.0483C101.443 45.7303 101.995 46.2832 102.677 46.2832Z" fill="#C2C0C4"/>
<path d="M106.794 46.2832C107.476 46.2832 108.029 45.7303 108.029 45.0483C108.029 44.3663 107.476 43.8135 106.794 43.8135C106.112 43.8135 105.559 44.3663 105.559 45.0483C105.559 45.7303 106.112 46.2832 106.794 46.2832Z" fill="#C2C0C4"/>
<path d="M110.91 46.2832C111.592 46.2832 112.145 45.7303 112.145 45.0483C112.145 44.3663 111.592 43.8135 110.91 43.8135C110.228 43.8135 109.675 44.3663 109.675 45.0483C109.675 45.7303 110.228 46.2832 110.91 46.2832Z" fill="#C2C0C4"/>
<path d="M20.3533 46.2832C21.0353 46.2832 21.5881 45.7303 21.5881 45.0483C21.5881 44.3663 21.0353 43.8135 20.3533 43.8135C19.6713 43.8135 19.1184 44.3663 19.1184 45.0483C19.1184 45.7303 19.6713 46.2832 20.3533 46.2832Z" fill="#C2C0C4"/>
<path d="M16.2371 46.2832C16.9191 46.2832 17.4719 45.7303 17.4719 45.0483C17.4719 44.3663 16.9191 43.8135 16.2371 43.8135C15.5551 43.8135 15.0022 44.3663 15.0022 45.0483C15.0022 45.7303 15.5551 46.2832 16.2371 46.2832Z" fill="#C2C0C4"/>
<path d="M113.791 63.5713H15.0022V65.2178H113.791V63.5713Z" fill="#C7C5C9"/>
<path d="M113.791 88.2686H15.0022V89.915H113.791V88.2686Z" fill="#C7C5C9"/>
<defs>
<linearGradient id="paint0_linear_52_190" x1="64.3951" y1="39.6973" x2="64.3951" y2="15" gradientUnits="userSpaceOnUse">
<stop stop-color="#F4D87E"/>
<stop offset="1" stop-color="#F5C52C"/>
</linearGradient>
</defs>
</svg>
