<svg width="128" height="128" viewBox="0 0 128 128" fill="none" xmlns="http://www.w3.org/2000/svg">
<path d="M92.7345 77.1292H105.899C106.185 77.1287 106.467 77.192 106.725 77.3145C106.983 77.437 107.211 77.6156 107.391 77.8373C107.571 78.0589 107.7 78.318 107.767 78.5957C107.834 78.8733 107.839 79.1625 107.78 79.4421C106.634 84.8166 102.498 98.3609 88.9426 107.191C88.9426 107.191 66.946 120.389 46.1237 110.035C46.081 110.014 46.0383 109.996 45.9947 109.978C44.4395 109.376 14.7911 96.7733 20.8035 58.2957C20.8035 58.2957 26.4146 27.0312 62.89 24.2257C62.89 24.2257 80.5259 22.2216 96.5589 38.2545C96.5589 38.2545 104.936 46.981 107.684 57.9189C107.754 58.2021 107.758 58.4974 107.697 58.7826C107.635 59.0678 107.51 59.3352 107.33 59.5647C107.15 59.7942 106.92 59.9796 106.658 60.107C106.395 60.2344 106.107 60.3003 105.816 60.2999H92.6736C92.2937 60.3005 91.9222 60.1881 91.6064 59.977C91.2906 59.7659 91.0447 59.4657 90.9 59.1145C89.3632 55.3723 83.7155 43.9368 71.4185 41.8798C71.3499 41.8685 71.282 41.8529 71.2153 41.8331C66.6853 40.6223 61.9218 40.5837 57.3728 41.721C52.8237 42.8582 48.6388 45.1339 45.2115 48.334C41.1816 52.0522 38.2613 56.8146 36.7748 62.0923C35.2882 67.37 35.2938 72.9565 36.7907 78.2313C39.2459 86.649 45.8596 95.5665 62.4898 97.5706C62.4898 97.5706 83.3213 100.271 90.9234 78.4223C91.0538 78.0455 91.2982 77.7186 91.6227 77.4869C91.9472 77.2553 92.3358 77.1302 92.7345 77.1292Z" fill="#00FFF8"/>
<path d="M50.4641 67.1086H67.0984" stroke="#FF7272" stroke-width="5" stroke-linecap="round"/>
<path d="M67.0974 14V66.9086" stroke="#FF7272" stroke-width="5" stroke-linecap="round"/>
<path d="M58.8818 45.0635C58.8818 45.0635 41.246 47.4688 39.2418 67.1058C39.2418 67.1058 37.2377 90.3538 61.2841 94.362C61.2841 94.362 72.9076 95.5647 80.1227 88.3497" stroke="#00FFF8" stroke-linecap="round"/>
</svg>
