<svg width="128" height="152" viewBox="0 0 128 152" fill="none" xmlns="http://www.w3.org/2000/svg">
<path d="M14 42.9044V84.1449C14 89.2467 16.7215 93.9655 21.1429 96.5144L56.8573 117.137C59.0288 118.392 61.4924 119.052 64.0002 119.052C66.5081 119.052 68.9717 118.392 71.1432 117.137L106.857 96.5144C109.029 95.2609 110.832 93.4579 112.086 91.2865C113.34 89.1152 114 86.652 114 84.1446V42.9046C114 37.8009 111.279 33.0828 106.857 30.533L71.1429 9.91534C68.9715 8.66061 66.508 8 64.0001 8C61.4923 8 59.0287 8.66061 56.8573 9.91534L21.1429 30.533C18.9712 31.7867 17.1677 33.5901 15.9138 35.7618C14.66 37.9334 13.9999 40.397 14 42.9046V42.9044Z" fill="url(#paint0_linear_120_33)"/>
<g style="mix-blend-mode:screen" filter="url(#filter0_ddddd_120_33)">
<path d="M39.0011 56.3873V70.6745C39.0003 71.1438 39.0921 71.6087 39.2714 72.0425C39.4506 72.4763 39.7137 72.8704 40.0456 73.2023C40.3775 73.5342 40.7716 73.7973 41.2054 73.9765C41.6392 74.1558 42.1041 74.2476 42.5734 74.2468C43.0426 74.247 43.5073 74.1548 43.9408 73.9754C44.3744 73.796 44.7683 73.5328 45.1 73.2011C45.4318 72.8693 45.6949 72.4754 45.8744 72.0418C46.0538 71.6083 46.146 71.1437 46.1457 70.6745C46.1457 69.7273 46.522 68.8189 47.1917 68.1492C47.8615 67.4794 48.7698 67.1032 49.717 67.1032C50.6642 67.1032 51.5725 67.4794 52.2423 68.1492C52.912 68.8189 53.2883 69.7273 53.2883 70.6745C53.2883 73.5162 52.1594 76.2416 50.15 78.251C48.1405 80.2604 45.4152 81.3893 42.5734 81.3893C39.7317 81.3893 37.0063 80.2604 34.9969 78.251C32.9875 76.2416 31.8586 73.5162 31.8586 70.6745V56.3894C31.8586 53.5476 32.9875 50.8223 34.9969 48.8129C37.0063 46.8034 39.7317 45.6746 42.5734 45.6746C45.4152 45.6746 48.1405 46.8034 50.15 48.8129C52.1594 50.8223 53.2883 53.5476 53.2883 56.3894C53.2883 57.3366 52.912 58.2449 52.2423 58.9147C51.5725 59.5844 50.6642 59.9607 49.717 59.9607C48.7698 59.9607 47.8615 59.5844 47.1917 58.9147C46.522 58.2449 46.1457 57.3366 46.1457 56.3894C46.1457 55.4422 45.7695 54.5339 45.0997 53.8641C44.43 53.1944 43.5216 52.8181 42.5745 52.8181C41.6273 52.8181 40.7189 53.1944 40.0492 53.8641C39.3795 54.5339 39.0032 55.4422 39.0032 56.3894L39.0011 56.3873ZM96.1455 70.6745C96.1461 71.1437 96.054 71.6085 95.8747 72.0422C95.6954 72.4758 95.4323 72.8698 95.1004 73.2017C94.7686 73.5335 94.3746 73.7966 93.9409 73.9759C93.5073 74.1553 93.0425 74.2473 92.5732 74.2468H89.0009V77.817C89.0009 78.7653 88.6258 79.674 87.9546 80.343C87.6235 80.6754 87.23 80.9392 86.7967 81.1192C86.3634 81.2992 85.8988 81.3918 85.4296 81.3918C84.9604 81.3918 84.4959 81.2992 84.0626 81.1192C83.6293 80.9392 83.2358 80.6754 82.9047 80.343C82.2357 79.6724 81.8595 78.7642 81.8584 77.817V74.2468H74.7159V77.817C74.717 78.2864 74.6253 78.7514 74.4462 79.1854C74.267 79.6193 74.0039 80.0135 73.672 80.3454C73.3401 80.6774 72.9458 80.9405 72.5119 81.1196C72.078 81.2987 71.613 81.3904 71.1435 81.3893C70.6743 81.3901 70.2095 81.2983 69.7758 81.119C69.3422 80.9397 68.9482 80.6766 68.6164 80.3447C68.2847 80.0128 68.0218 79.6186 67.8428 79.1849C67.6638 78.7511 67.5722 78.2862 67.5733 77.817V74.2468H63.9989C63.0518 74.2468 62.1434 73.8705 61.4737 73.2008C60.8039 72.531 60.4277 71.6227 60.4277 70.6755C60.4277 69.7283 60.8039 68.82 61.4737 68.1502C62.1434 67.4805 63.0518 67.1042 63.9989 67.1042H67.5712V59.9617H63.9989C63.0518 59.9617 62.1434 59.5854 61.4737 58.9157C60.8039 58.246 60.4277 57.3376 60.4277 56.3904C60.4277 55.4433 60.8039 54.5349 61.4737 53.8652C62.1434 53.1954 63.0518 52.8192 63.9989 52.8192H67.5712V49.2469C67.5712 48.2997 67.9475 47.3913 68.6172 46.7216C69.287 46.0519 70.1953 45.6756 71.1425 45.6756C72.0897 45.6756 72.998 46.0519 73.6678 46.7216C74.3375 47.3913 74.7138 48.2997 74.7138 49.2469V52.8171H81.8563V49.2469C81.8563 48.2997 82.2326 47.3913 82.9023 46.7216C83.572 46.0519 84.4804 45.6756 85.4276 45.6756C86.3747 45.6756 87.2831 46.0519 87.9528 46.7216C88.6226 47.3913 88.9988 48.2997 88.9988 49.2469V52.8171H92.5711C93.5174 52.8171 94.4261 53.1922 95.0951 53.8634C95.4275 54.1945 95.6913 54.588 95.8712 55.0213C96.0512 55.4546 96.1439 55.9192 96.1439 56.3884C96.1439 56.8576 96.0512 57.3221 95.8712 57.7554C95.6913 58.1887 95.4275 58.5822 95.0951 58.9133C94.7639 59.2454 94.3705 59.5089 93.9375 59.6888C93.5044 59.8687 93.0401 59.9614 92.5711 59.9617H88.9988V67.1042H92.5711C93.5175 67.1064 94.4246 67.4832 95.094 68.1522C95.7634 68.8213 96.1428 69.7281 96.1455 70.6745ZM81.8584 59.9617H74.7159V67.1042H81.8584V59.9617Z" fill="white"/>
</g>
<defs>
<filter id="filter0_ddddd_120_33" x="11.9254" y="32.3924" width="104.153" height="118.766" filterUnits="userSpaceOnUse" color-interpolation-filters="sRGB">
<feFlood flood-opacity="0" result="BackgroundImageFix"/>
<feColorMatrix in="SourceAlpha" type="matrix" values="0 0 0 0 0 0 0 0 0 0 0 0 0 0 0 0 0 0 127 0" result="hardAlpha"/>
<feOffset/>
<feColorMatrix type="matrix" values="0 0 0 0 0 0 0 0 0 0 0 0 0 0 0 0 0 0 0.1 0"/>
<feBlend mode="normal" in2="BackgroundImageFix" result="effect1_dropShadow_120_33"/>
<feColorMatrix in="SourceAlpha" type="matrix" values="0 0 0 0 0 0 0 0 0 0 0 0 0 0 0 0 0 0 127 0" result="hardAlpha"/>
<feOffset dy="3.3222"/>
<feGaussianBlur stdDeviation="8.30219"/>
<feColorMatrix type="matrix" values="0 0 0 0 0 0 0 0 0 0 0 0 0 0 0 0 0 0 0.1 0"/>
<feBlend mode="normal" in2="effect1_dropShadow_120_33" result="effect2_dropShadow_120_33"/>
<feColorMatrix in="SourceAlpha" type="matrix" values="0 0 0 0 0 0 0 0 0 0 0 0 0 0 0 0 0 0 127 0" result="hardAlpha"/>
<feOffset dy="13.2888"/>
<feGaussianBlur stdDeviation="6.64441"/>
<feColorMatrix type="matrix" values="0 0 0 0 0 0 0 0 0 0 0 0 0 0 0 0 0 0 0.09 0"/>
<feBlend mode="normal" in2="effect2_dropShadow_120_33" result="effect3_dropShadow_120_33"/>
<feColorMatrix in="SourceAlpha" type="matrix" values="0 0 0 0 0 0 0 0 0 0 0 0 0 0 0 0 0 0 127 0" result="hardAlpha"/>
<feOffset dy="29.8998"/>
<feGaussianBlur stdDeviation="8.30551"/>
<feColorMatrix type="matrix" values="0 0 0 0 0 0 0 0 0 0 0 0 0 0 0 0 0 0 0.05 0"/>
<feBlend mode="normal" in2="effect3_dropShadow_120_33" result="effect4_dropShadow_120_33"/>
<feColorMatrix in="SourceAlpha" type="matrix" values="0 0 0 0 0 0 0 0 0 0 0 0 0 0 0 0 0 0 127 0" result="hardAlpha"/>
<feOffset dy="49.8331"/>
<feGaussianBlur stdDeviation="9.96661"/>
<feColorMatrix type="matrix" values="0 0 0 0 0 0 0 0 0 0 0 0 0 0 0 0 0 0 0.01 0"/>
<feBlend mode="normal" in2="effect4_dropShadow_120_33" result="effect5_dropShadow_120_33"/>
<feBlend mode="normal" in="SourceGraphic" in2="effect5_dropShadow_120_33" result="shape"/>
</filter>
<linearGradient id="paint0_linear_120_33" x1="23.8208" y1="32.2756" x2="72.0363" y2="116.206" gradientUnits="userSpaceOnUse">
<stop stop-color="#927BE5"/>
<stop offset="1" stop-color="#512BD4"/>
</linearGradient>
</defs>
</svg>
