<svg width="128" height="128" viewBox="0 0 128 128" fill="none" xmlns="http://www.w3.org/2000/svg">
<path d="M29 34L36.5 96.5L16.4525 76.4525C13.48 73.48 12.6825 68.9625 14.4625 65.1525L29 34Z" fill="#1565C0"/>
<path d="M72.2975 19.7975C70.185 17.685 67.3225 16.5 64.3375 16.5C62.475 16.5 60.64 16.9625 59 17.845L29 34V84.8575C29 87.51 30.0525 90.0525 31.93 91.9275L36.5 96.5H91.5V84L109 56.5L72.2975 19.7975Z" fill="#42A5F5"/>
<path d="M29 34H82.3575C85.01 34 87.5525 35.0525 89.4275 36.93L109 56.5V96.5H91.5L29 34Z" fill="#1565C0"/>
<path d="M91.5 96.5H36.5L51.5 111.5H91.5V96.5Z" fill="#85CBF8"/>
</svg>
