<svg width="128" height="128" viewBox="0 0 128 128" fill="none" xmlns="http://www.w3.org/2000/svg">
<g clip-path="url(#clip0_52_126)">
<mask id="mask0_52_126" style="mask-type:luminance" maskUnits="userSpaceOnUse" x="29" y="12" width="70" height="104">
<path d="M98.1358 12H29V115.704H98.1358V12Z" fill="white"/>
</mask>
<g mask="url(#mask0_52_126)">
<path d="M46.2839 115.704C55.8246 115.704 63.5679 107.961 63.5679 98.4199V81.136H46.2839C36.7432 81.136 29 88.8792 29 98.4199C29 107.961 36.7432 115.704 46.2839 115.704Z" fill="#0ACF83"/>
<path d="M29 63.8515C29 54.3108 36.7432 46.5676 46.2839 46.5676H63.5679V81.1356H46.2839C36.7432 81.1356 29 73.3923 29 63.8515Z" fill="#A259FF"/>
<path d="M29 29.2839C29 19.7432 36.7432 12 46.2839 12H63.5679V46.5679H46.2839C36.7432 46.5679 29 38.8246 29 29.2839Z" fill="#F24E1E"/>
<path d="M63.5679 12H80.852C90.3927 12 98.1359 19.7432 98.1359 29.2839C98.1359 38.8246 90.3927 46.5679 80.852 46.5679H63.5679V12Z" fill="#FF7262"/>
<path d="M98.1359 63.8515C98.1359 73.3923 90.3927 81.1356 80.852 81.1356C71.3112 81.1356 63.5679 73.3923 63.5679 63.8515C63.5679 54.3108 71.3112 46.5676 80.852 46.5676C90.3927 46.5676 98.1359 54.3108 98.1359 63.8515Z" fill="#1ABCFE"/>
</g>
</g>
<defs>
<clipPath id="clip0_52_126">
<rect width="70" height="103.704" fill="white" transform="translate(29 12)"/>
</clipPath>
</defs>
</svg>
