<svg width="128" height="128" viewBox="0 0 128 128" fill="none" xmlns="http://www.w3.org/2000/svg">
<path d="M45.6359 119.573C50.5954 121.569 55.9759 122.754 61.6256 122.951C69.2715 123.218 76.5423 121.637 83.0424 118.634C75.2478 115.572 68.1886 111.094 62.1637 105.526C58.2584 111.778 52.4822 116.717 45.6359 119.573Z" fill="#FF9100"/>
<path d="M62.163 105.527C48.4102 92.808 40.0672 74.3985 40.7723 54.2062C40.7953 53.5507 40.8299 52.8953 40.8704 52.2402C38.3585 51.5888 35.7829 51.2139 33.1895 51.1221C29.5039 50.9918 25.8203 51.4347 22.2705 52.4347C18.599 58.8657 16.3838 66.2444 16.1077 74.148C15.3954 94.545 27.7391 112.368 45.635 119.575C52.4815 116.719 58.2575 111.786 62.163 105.527Z" fill="#FFC400"/>
<path d="M62.1632 105.527C65.3607 100.41 67.2992 94.4109 67.5249 87.9476C68.1186 70.946 56.6893 56.3207 40.8706 52.2396C40.8301 52.8948 40.7955 53.5501 40.7725 54.2057C40.0674 74.3979 48.4105 92.8075 62.1632 105.527Z" fill="#FF9100"/>
<path d="M65.756 4.44971C56.7467 11.6674 49.6324 21.1844 45.328 32.1478C42.8638 38.4275 41.3152 45.1729 40.8632 52.2438C56.6818 56.3249 68.1114 70.9502 67.5177 87.9516C67.292 94.4149 65.3476 100.408 62.1557 105.531C68.1803 111.105 75.2397 115.578 83.0343 118.64C98.6795 111.408 109.78 95.846 110.423 77.4394C110.839 65.5138 106.257 54.8849 99.7826 45.9134C92.9451 36.425 65.756 4.44971 65.756 4.44971Z" fill="#DD2C00"/>
</svg>
