<svg width="801" height="801" viewBox="0 0 801 801" fill="none" xmlns="http://www.w3.org/2000/svg">
<path d="M635.658 11H164.425C79.6906 11 11 79.6906 11 164.425V635.658C11 720.392 79.6906 789.082 164.425 789.082H635.658C720.392 789.082 789.082 720.392 789.082 635.658V164.425C789.082 79.6906 720.392 11 635.658 11Z" fill="black" stroke="black" stroke-width="21.9178"/>
<path d="M660.937 256.788C634.515 211.518 598.676 175.677 553.409 149.258C508.136 122.837 458.711 109.63 405.099 109.63C351.494 109.63 302.052 122.841 256.789 149.258C211.518 175.675 175.68 211.518 149.258 256.788C122.84 302.058 109.63 351.492 109.63 405.09C109.63 469.474 128.415 527.37 165.992 578.792C203.566 630.218 252.106 665.803 311.608 685.55C318.534 686.836 323.661 685.932 326.995 682.861C330.33 679.786 331.995 675.935 331.995 671.323C331.995 670.554 331.929 663.632 331.801 650.549C331.669 637.466 331.607 626.053 331.607 616.314L322.758 617.845C317.116 618.879 309.999 619.317 301.406 619.193C292.817 619.073 283.9 618.172 274.669 616.499C265.433 614.84 256.842 610.993 248.891 604.966C240.943 598.938 235.301 591.049 231.966 581.309L228.119 572.456C225.555 566.562 221.518 560.014 216.002 552.837C210.487 545.654 204.91 540.784 199.268 538.22L196.574 536.291C194.779 535.01 193.114 533.464 191.573 531.671C190.035 529.877 188.882 528.082 188.113 526.285C187.342 524.486 187.981 523.01 190.036 521.853C192.091 520.695 195.805 520.134 201.193 520.134L208.885 521.283C214.015 522.311 220.36 525.382 227.929 530.515C235.494 535.643 241.713 542.311 246.587 550.514C252.489 561.033 259.599 569.048 267.939 574.563C276.272 580.079 284.674 582.832 293.136 582.832C301.598 582.832 308.907 582.19 315.065 580.914C321.217 579.631 326.988 577.703 332.377 575.14C334.685 557.949 340.97 544.742 351.226 535.51C336.608 533.974 323.466 531.66 311.792 528.584C300.126 525.503 288.069 520.504 275.632 513.573C263.188 506.65 252.865 498.055 244.66 487.8C236.453 477.54 229.719 464.071 224.465 447.403C219.208 430.729 216.579 411.495 216.579 389.695C216.579 358.655 226.712 332.242 246.975 310.439C237.483 287.103 238.379 260.943 249.666 231.961C257.104 229.65 268.134 231.384 282.752 237.152C297.373 242.924 308.077 247.868 314.877 251.967C321.676 256.065 327.124 259.537 331.229 262.353C355.086 255.687 379.706 252.354 405.096 252.354C430.486 252.354 455.111 255.687 478.97 262.353L493.589 253.124C503.586 246.966 515.392 241.323 528.977 236.193C542.571 231.066 552.966 229.654 560.151 231.965C571.688 260.948 572.716 287.107 563.222 310.443C583.483 332.246 593.62 358.666 593.62 389.699C593.62 411.499 590.981 430.794 585.733 447.596C580.478 464.401 573.685 477.857 565.352 487.993C557.01 498.127 546.62 506.656 534.183 513.577C521.743 520.503 509.683 525.502 498.016 528.582C486.344 531.663 473.202 533.978 458.584 535.517C471.916 547.054 478.584 565.265 478.584 590.143V671.313C478.584 675.924 480.187 679.774 483.397 682.85C486.603 685.921 491.665 686.825 498.591 685.538C558.101 665.793 606.641 630.207 644.213 578.781C681.782 527.359 700.573 469.463 700.573 405.08C700.559 351.488 687.343 302.058 660.937 256.788Z" fill="white"/>
</svg>
