<svg width="779" height="779" viewBox="0 0 779 779" fill="none" xmlns="http://www.w3.org/2000/svg">
<path fill-rule="evenodd" clip-rule="evenodd" d="M389 145C250.893 145 139 256.755 139 394.681C139 505.008 210.643 598.553 309.964 631.58C322.464 633.865 327.036 626.153 327.036 619.548C327.036 613.621 326.821 597.911 326.679 577.059C257.143 592.162 242.5 543.604 242.5 543.604C231.107 514.755 214.714 507.079 214.714 507.079C192.036 491.583 216.429 491.904 216.429 491.904C241.536 493.689 254.75 517.611 254.75 517.611C277.036 555.815 313.25 544.747 327.5 538.391C329.75 522.253 336.214 511.256 343.357 505.008C287.857 498.724 229.5 477.301 229.5 381.613C229.5 354.371 239.25 332.056 255.214 314.632C252.643 308.312 244.071 282.926 257.714 248.579C257.714 248.579 278.643 241.83 326.429 274.143C346.823 268.588 367.862 265.755 389 265.717C410.25 265.824 431.643 268.573 451.607 274.143C499.321 241.83 520.286 248.543 520.286 248.543C533.929 282.926 525.357 308.312 522.786 314.596C538.786 332.091 548.5 354.371 548.5 381.613C548.5 477.515 490 498.652 434.321 504.794C443.286 512.506 451.286 527.752 451.286 551.067C451.286 584.414 450.964 611.336 450.964 619.548C450.964 626.224 455.5 633.972 468.179 631.544C517.906 614.967 561.16 583.175 591.816 540.666C622.473 498.157 638.979 447.086 639 394.681C638.962 328.43 612.603 264.907 565.72 218.083C518.837 171.26 455.27 144.972 389 145Z" fill="black"/>
<path fill-rule="evenodd" clip-rule="evenodd" d="M671.978 0C730.578 0 778.08 47.5036 778.08 106.102V671.978C778.08 730.578 730.578 778.08 671.978 778.08H106.102C47.5036 778.08 0 730.578 0 671.978V106.102C0 47.5036 47.5036 0 106.102 0H671.978ZM671.978 70.7346C691.512 70.7346 707.346 86.5692 707.346 106.102V671.978C707.346 691.512 691.512 707.346 671.978 707.346H106.102C86.5692 707.346 70.7346 691.512 70.7346 671.978V106.102C70.7346 86.5692 86.5692 70.7346 106.102 70.7346H671.978Z" fill="black" stroke="black" stroke-width="0.00256"/>
</svg>
