<svg width="779" height="779" viewBox="0 0 779 779" fill="none" xmlns="http://www.w3.org/2000/svg">
<path fill-rule="evenodd" clip-rule="evenodd" d="M389.001 145.001C250.894 145.001 139.001 256.756 139.001 394.682C139.001 505.009 210.644 598.555 309.966 631.581C322.466 633.866 327.037 626.154 327.037 619.549C327.037 613.622 326.823 597.912 326.68 577.061C257.144 592.164 242.501 543.606 242.501 543.606C231.108 514.756 214.716 507.08 214.716 507.08C192.037 491.584 216.43 491.906 216.43 491.906C241.537 493.691 254.751 517.613 254.751 517.613C277.037 555.816 313.251 544.748 327.501 538.393C329.751 522.254 336.216 511.257 343.358 505.009C287.858 498.725 229.501 477.302 229.501 381.615C229.501 354.372 239.251 332.057 255.216 314.633C252.644 308.313 244.073 282.928 257.716 248.58C257.716 248.58 278.644 241.832 326.43 274.144C346.824 268.589 367.864 265.756 389.001 265.718C410.251 265.825 431.644 268.574 451.608 274.144C499.323 241.832 520.287 248.544 520.287 248.544C533.93 282.928 525.358 308.313 522.787 314.597C538.787 332.093 548.501 354.372 548.501 381.615C548.501 477.517 490.001 498.654 434.323 504.795C443.287 512.507 451.287 527.753 451.287 551.068C451.287 584.416 450.966 611.337 450.966 619.549C450.966 626.226 455.501 633.973 468.18 631.546C517.908 614.969 561.161 583.176 591.817 540.667C622.474 498.159 638.981 447.087 639.001 394.682C638.963 328.431 612.604 264.908 565.721 218.085C518.838 171.261 455.271 144.973 389.001 145.001Z" fill="#BDBDBD"/>
<path fill-rule="evenodd" clip-rule="evenodd" d="M671.979 0.00128174C730.579 0.00128174 778.081 47.5048 778.081 106.103V671.979C778.081 730.58 730.579 778.081 671.979 778.081H106.103C47.5048 778.081 0.0012207 730.58 0.0012207 671.979V106.103C0.0012207 47.5048 47.5048 0.00128174 106.103 0.00128174H671.979ZM671.979 70.7358C691.513 70.7358 707.347 86.5705 707.347 106.103V671.979C707.347 691.513 691.513 707.347 671.979 707.347H106.103C86.5704 707.347 70.7358 691.513 70.7358 671.979V106.103C70.7358 86.5705 86.5704 70.7358 106.103 70.7358H671.979Z" fill="#BDBDBD" stroke="#BDBDBD" stroke-width="0.00256"/>
</svg>
