<svg width="128" height="128" viewBox="0 0 128 128" fill="none" xmlns="http://www.w3.org/2000/svg">
<path d="M13.056 55.575C12.8223 55.575 12.7639 55.4581 12.8808 55.2828L14.1077 53.7053C14.2246 53.5301 14.5167 53.4132 14.7504 53.4132H35.6085C35.8422 53.4132 35.9006 53.5885 35.7838 53.7638L34.7905 55.2828C34.6737 55.4581 34.3815 55.6334 34.2063 55.6334L13.056 55.575Z" fill="#00ACD7"/>
<path d="M4.2337 60.9502C4 60.9502 3.94157 60.8334 4.05843 60.6581L5.28537 59.0806C5.40223 58.9053 5.69436 58.7885 5.92806 58.7885H32.5703C32.8041 58.7885 32.9209 58.9637 32.8625 59.139L32.3951 60.5412C32.3366 60.7749 32.1029 60.8918 31.8692 60.8918L4.2337 60.9502Z" fill="#00ACD7"/>
<path d="M18.3728 66.3253C18.1391 66.3253 18.0807 66.1501 18.1975 65.9748L19.0155 64.5141C19.1323 64.3389 19.366 64.1636 19.5998 64.1636H31.285C31.5187 64.1636 31.6355 64.3389 31.6355 64.5726L31.5187 65.9748C31.5187 66.2085 31.285 66.3838 31.1097 66.3838L18.3728 66.3253Z" fill="#00ACD7"/>
<path d="M79.0191 54.5232C75.3383 55.4581 72.8259 56.1592 69.2035 57.094C68.3271 57.3277 68.2687 57.3861 67.5092 56.5097C66.6328 55.5165 65.9901 54.8738 64.7631 54.2895C61.0823 52.4783 57.5183 53.0042 54.188 55.1659C50.215 57.7367 48.1701 61.5344 48.2286 66.2669C48.287 70.941 51.5004 74.7971 56.1161 75.4398C60.0891 75.9656 63.4193 74.5634 66.0485 71.5837C66.5743 70.941 67.0418 70.2399 67.626 69.4219C65.5227 69.4219 62.8935 69.4219 56.3498 69.4219C55.1228 69.4219 54.8307 68.6623 55.2397 67.6691C55.9992 65.8579 57.4015 62.8197 58.2194 61.3007C58.3947 60.9501 58.8037 60.3658 59.6801 60.3658H80.9472C80.8303 61.9434 80.8303 63.5209 80.5966 65.0984C79.9539 69.305 78.3764 73.1612 75.8057 76.5499C71.599 82.1003 66.1069 85.5475 59.1542 86.4823C53.4285 87.2418 48.1117 86.1317 43.4376 82.6262C39.1141 79.3543 36.6602 75.0308 36.0175 69.6556C35.258 63.2871 37.1276 57.5614 40.9837 52.5368C45.132 47.1031 50.624 43.656 57.343 42.429C62.8351 41.4358 68.0934 42.0785 72.8259 45.2919C75.9225 47.3368 78.1427 50.1413 79.6034 53.53C79.9539 54.0558 79.7202 54.348 79.0191 54.5232Z" fill="#00ACD7"/>
<path d="M98.3581 86.833C93.0413 86.7161 88.1919 85.1971 84.1021 81.6915C80.655 78.7118 78.4932 74.9141 77.7921 70.4153C76.7404 63.8131 78.5516 57.9705 82.5246 52.7706C86.7897 47.1617 91.9312 44.2404 98.8839 43.0134C104.843 41.9618 110.452 42.546 115.535 45.9932C120.151 49.1482 123.014 53.4133 123.773 59.0222C124.767 66.9097 122.488 73.3366 117.054 78.8286C113.198 82.7432 108.466 85.1971 103.032 86.3071C101.455 86.5993 99.8772 86.6577 98.3581 86.833ZM112.263 63.2288C112.205 62.4693 112.205 61.885 112.088 61.3008C111.037 55.5166 105.72 52.2447 100.169 53.5301C94.7357 54.7571 91.2301 58.2042 89.9447 63.6963C88.8931 68.2535 91.1133 72.8691 95.3199 74.7388C98.5334 76.141 101.747 75.9657 104.843 74.3882C109.459 71.9928 111.971 68.2535 112.263 63.2288Z" fill="#00ACD7"/>
</svg>
