<svg width="815" height="814" viewBox="0 0 815 814" fill="none" xmlns="http://www.w3.org/2000/svg">
<path d="M2 181C2 81.5886 82.5888 1 182 1H634.14C733.551 1 814.14 81.5888 814.14 181V633.14C814.14 732.551 733.551 813.14 634.14 813.14H182C82.5886 813.14 2 732.551 2 633.14V181Z" fill="url(#paint0_radial_253_4)"/>
<rect x="69.0208" y="69.0207" width="675.959" height="675.959" stroke="#5A7DEA" stroke-width="2"/>
<circle cx="407.883" cy="407.883" r="141.124" stroke="#5A7DEA" stroke-width="2"/>
<circle cx="407.883" cy="407.883" r="282.366" stroke="#5A7DEA" stroke-width="2"/>
<path d="M0.931152 813.069L813.069 0.931152" stroke="#5A7DEA" stroke-width="2"/>
<path d="M0.931152 0.931152L813.069 813.069" stroke="#5A7DEA" stroke-width="2"/>
<path d="M297.538 0.93103V813.069" stroke="#5A7DEA" stroke-width="2"/>
<path d="M407 0.930908V813.069" stroke="#5A7DEA" stroke-width="2"/>
<path d="M516.462 0.930908V813.069" stroke="#5A7DEA" stroke-width="2"/>
<path d="M0.931152 516.462H813.069" stroke="#5A7DEA" stroke-width="2"/>
<path d="M0.931152 407H813.069" stroke="#5A7DEA" stroke-width="2"/>
<path d="M0.931152 297.538H813.069" stroke="#5A7DEA" stroke-width="2"/>
<rect x="182.014" y="125.517" width="449.972" height="564.731" rx="35" stroke="#5A7DEA" stroke-width="2"/>
<rect x="153.766" y="153.765" width="506.469" height="506.469" rx="35" stroke="#5A7DEA" stroke-width="2"/>
<rect x="125.517" y="182.014" width="564.731" height="449.972" rx="35" stroke="#5A7DEA" stroke-width="2"/>
<defs>
<radialGradient id="paint0_radial_253_4" cx="0" cy="0" r="1" gradientUnits="userSpaceOnUse" gradientTransform="translate(408.07 407.07) rotate(90) scale(406.07)">
<stop offset="0.375" stop-color="#1A4AE0" stop-opacity="0.13"/>
<stop offset="1" stop-color="#1A4AE0" stop-opacity="0.42"/>
</radialGradient>
</defs>
</svg>
