<svg width="128" height="128" viewBox="0 0 128 128" fill="none" xmlns="http://www.w3.org/2000/svg">
<g clip-path="url(#clip0_55_14)">
<path d="M14 14H114V114H14V14Z" fill="#F7DF1E"/>
<path d="M40.2937 97.5672L47.9461 92.936C49.4226 95.5536 50.7656 97.7684 53.9871 97.7684C57.075 97.7684 59.0222 96.5606 59.0222 91.8622V59.9098H68.4195V91.995C68.4195 101.728 62.714 106.159 54.3898 106.159C46.8722 106.159 42.5086 102.265 40.2933 97.5664M73.5238 96.5602L81.1754 92.1301C83.1898 95.4196 85.8078 97.836 90.439 97.836C94.3332 97.836 96.816 95.8891 96.816 93.2039C96.816 89.9821 94.2652 88.8407 89.9691 86.9618L87.6203 85.954C80.8402 83.0684 76.3429 79.4434 76.3429 71.7911C76.3429 64.7426 81.7129 59.3723 90.1039 59.3723C96.0781 59.3723 100.374 61.4536 103.462 66.8907L96.1445 71.5899C94.5332 68.7036 92.7886 67.5625 90.1035 67.5625C87.3511 67.5625 85.6058 69.3079 85.6058 71.5899C85.6058 74.409 87.3512 75.5508 91.3785 77.2961L93.7277 78.3028C101.716 81.7266 106.213 85.2168 106.213 93.07C106.213 101.529 99.5679 106.16 90.6402 106.16C81.914 106.16 76.2754 101.998 73.5234 96.5606" fill="black"/>
</g>
<defs>
<clipPath id="clip0_55_14">
<rect x="14" y="14" width="100" height="100" rx="15" fill="white"/>
</clipPath>
</defs>
</svg>
