<svg width="779" height="779" viewBox="0 0 779 779" fill="none" xmlns="http://www.w3.org/2000/svg">
<path d="M194.521 247.572C223.821 247.572 247.572 223.821 247.572 194.521C247.572 165.222 223.821 141.47 194.521 141.47C165.222 141.47 141.471 165.222 141.471 194.521C141.471 223.821 165.222 247.572 194.521 247.572Z" fill="#BDBDBD" stroke="#BDBDBD" stroke-width="0.00256"/>
<path d="M141.471 318.307C141.471 298.774 157.305 282.939 176.838 282.939H212.205C231.738 282.939 247.572 298.774 247.572 318.307V601.245C247.572 620.778 231.738 636.612 212.205 636.612H176.838C157.305 636.612 141.471 620.778 141.471 601.245V318.307Z" fill="#BDBDBD" stroke="#BDBDBD" stroke-width="0.00256"/>
<path d="M353.674 636.612H389.041C408.575 636.612 424.408 620.778 424.408 601.245V442.092C424.408 389.041 530.51 353.674 530.51 424.408V601.259C530.51 620.792 546.344 636.612 565.878 636.612H601.245C620.778 636.612 636.612 620.778 636.612 601.245V389.041C636.612 318.307 583.561 282.939 512.827 282.939C442.092 282.939 424.408 335.99 424.408 335.99V318.307C424.408 298.774 408.575 282.939 389.041 282.939H353.674C334.141 282.939 318.307 298.774 318.307 318.307V601.245C318.307 620.778 334.141 636.612 353.674 636.612Z" fill="#BDBDBD" stroke="#BDBDBD" stroke-width="0.00256"/>
<path fill-rule="evenodd" clip-rule="evenodd" d="M671.979 0.00128174C730.579 0.00128174 778.081 47.5048 778.081 106.103V671.979C778.081 730.58 730.579 778.081 671.979 778.081H106.103C47.5048 778.081 0.0012207 730.58 0.0012207 671.979V106.103C0.0012207 47.5048 47.5048 0.00128174 106.103 0.00128174H671.979ZM671.979 70.7358C691.513 70.7358 707.347 86.5705 707.347 106.103V671.979C707.347 691.513 691.513 707.347 671.979 707.347H106.103C86.5704 707.347 70.7358 691.513 70.7358 671.979V106.103C70.7358 86.5705 86.5704 70.7358 106.103 70.7358H671.979Z" fill="#BDBDBD" stroke="#BDBDBD" stroke-width="0.00256"/>
</svg>
