<svg width="779" height="779" viewBox="0 0 779 779" fill="none" xmlns="http://www.w3.org/2000/svg">
<path d="M194.52 247.571C223.82 247.571 247.571 223.819 247.571 194.52C247.571 165.221 223.82 141.469 194.52 141.469C165.221 141.469 141.469 165.221 141.469 194.52C141.469 223.819 165.221 247.571 194.52 247.571Z" fill="black" stroke="black" stroke-width="0.00256"/>
<path d="M141.469 318.305C141.469 298.773 157.304 282.938 176.837 282.938H212.204C231.737 282.938 247.571 298.772 247.571 318.305V601.244C247.571 620.777 231.737 636.611 212.204 636.611H176.837C157.304 636.611 141.469 620.777 141.469 601.244V318.305Z" fill="black" stroke="black" stroke-width="0.00256"/>
<path d="M353.673 636.611H389.04C408.573 636.611 424.407 620.777 424.407 601.244V442.091C424.407 389.04 530.509 353.673 530.509 424.407V601.258C530.509 620.791 546.343 636.611 565.876 636.611H601.244C620.777 636.611 636.611 620.777 636.611 601.244V389.04C636.611 318.305 583.56 282.938 512.825 282.938C442.091 282.938 424.407 335.989 424.407 335.989V318.305C424.407 298.772 408.573 282.938 389.04 282.938H353.673C334.139 282.938 318.305 298.773 318.305 318.305V601.244C318.305 620.777 334.139 636.611 353.673 636.611Z" fill="black" stroke="black" stroke-width="0.00256"/>
<path fill-rule="evenodd" clip-rule="evenodd" d="M671.978 0C730.578 0 778.08 47.5036 778.08 106.102V671.978C778.08 730.578 730.578 778.08 671.978 778.08H106.102C47.5036 778.08 0 730.578 0 671.978V106.102C0 47.5036 47.5036 0 106.102 0H671.978ZM671.978 70.7346C691.512 70.7346 707.346 86.5692 707.346 106.102V671.978C707.346 691.512 691.512 707.346 671.978 707.346H106.102C86.5692 707.346 70.7346 691.512 70.7346 671.978V106.102C70.7346 86.5692 86.5692 70.7346 106.102 70.7346H671.978Z" fill="black" stroke="black" stroke-width="0.00256"/>
</svg>
