<svg width="779" height="779" viewBox="0 0 779 779" fill="none" xmlns="http://www.w3.org/2000/svg">
<path d="M662.989 662.99H547.703V482.41C547.703 439.357 546.925 383.919 487.727 383.919C427.685 383.919 418.477 430.863 418.477 479.233V662.99H303.192V291.651H413.874V342.421H415.43C437.994 303.906 480.01 280.823 524.62 282.444C641.462 282.444 663.054 359.279 663.054 459.327L662.989 662.925V662.99ZM173.123 240.882C155.413 240.796 138.452 233.728 125.924 221.211C113.395 208.695 106.31 191.741 106.208 174.032C106.208 137.332 136.423 107.117 173.123 107.117C209.822 107.117 239.973 137.332 240.038 174.032C240.038 210.731 209.822 240.882 173.123 240.882ZM230.766 662.99H115.35V291.651H173.058H230.766V662.99ZM720.372 0.000963732H57.3834C42.3503 -0.0863517 27.8901 5.76262 17.1452 16.2768C6.40029 26.7911 0.238914 41.1209 0 56.1524V721.93C0.238914 736.961 6.40029 751.291 17.1452 761.805C27.8901 772.319 42.3503 778.168 57.3834 778.081H720.437C735.505 778.203 750.012 772.373 760.806 761.859C771.599 751.345 777.807 736.995 778.08 721.93V56.0876C777.807 41.0335 771.595 26.6974 760.798 16.2037C750 5.71004 735.493 -0.0906627 720.437 0.065799L720.372 0.000963732Z" fill="#0A66C2"/>
</svg>
