<svg width="779" height="779" viewBox="0 0 779 779" fill="none" xmlns="http://www.w3.org/2000/svg">
<path d="M623.075 569.06L664.356 610.298V612.459H451.638V610.298L495.037 569.06C499.36 564.737 501.521 560.414 501.521 553.887V297.769C501.521 286.876 501.521 271.704 503.726 258.692L360.473 616.825H358.311L210.692 286.876C208.531 278.231 206.37 278.231 204.208 273.908V490.906C202.004 506.122 204.208 519.133 210.692 532.187L269.308 610.298V612.459H113V610.298L171.615 529.983C178.099 517.015 180.261 501.799 178.099 488.745V250.047C178.099 239.197 175.938 226.143 167.293 217.497L128.173 163.161V161H280.114L405.99 441.022L516.737 161H664.356V163.161L623.118 210.927C618.795 215.249 616.634 221.777 616.634 226.099V556.048C616.634 560.371 618.795 566.898 623.118 569.06H623.075Z" fill="black" stroke="black" stroke-width="0.00256"/>
<path fill-rule="evenodd" clip-rule="evenodd" d="M671.978 0C730.578 0 778.08 47.5036 778.08 106.102V671.978C778.08 730.578 730.578 778.08 671.978 778.08H106.102C47.5036 778.08 0 730.578 0 671.978V106.102C0 47.5036 47.5036 0 106.102 0H671.978ZM671.978 70.7346C691.512 70.7346 707.346 86.5692 707.346 106.102V671.978C707.346 691.512 691.512 707.346 671.978 707.346H106.102C86.5692 707.346 70.7346 691.512 70.7346 671.978V106.102C70.7346 86.5692 86.5692 70.7346 106.102 70.7346H671.978Z" fill="black" stroke="black" stroke-width="0.00256"/>
</svg>
