<svg width="779" height="779" viewBox="0 0 779 779" fill="none" xmlns="http://www.w3.org/2000/svg">
<path d="M720.372 0.000963732H57.3834C42.3503 -0.0863517 27.8901 5.76262 17.1452 16.2768C6.40029 26.7911 0.238914 41.1209 0 56.1524V721.93C0.238914 736.961 6.40029 751.291 17.1452 761.805C27.8901 772.319 42.3503 778.168 57.3834 778.081H720.437C735.505 778.203 750.012 772.373 760.806 761.859C771.599 751.345 777.807 736.995 778.08 721.93V56.0876C777.807 41.0335 771.595 26.6974 760.798 16.2037C750 5.71004 735.493 -0.0906627 720.437 0.065799L720.372 0.000963732Z" fill="black"/>
<path d="M258.348 205C164.819 205 89 287.679 89 389.72C97.9301 634.786 418.811 634.674 427.703 389.72C427.709 287.707 351.877 205 258.348 205Z" fill="white"/>
<path d="M528.812 215.835C482.05 215.835 444.134 293.708 444.134 389.72C448.778 620.475 608.858 620.475 613.489 389.72C613.489 293.708 575.58 215.835 528.812 215.835Z" fill="white"/>
<path d="M659.705 233.924C620.587 236.922 620.672 542.694 659.698 545.515C698.802 542.546 698.731 236.732 659.705 233.924Z" fill="white"/>
</svg>
