<svg width="779" height="779" viewBox="0 0 779 779" fill="none" xmlns="http://www.w3.org/2000/svg">
<path d="M623.076 569.061L664.357 610.299V612.461H451.639V610.299L495.039 569.061C499.361 564.738 501.523 560.416 501.523 553.888V297.77C501.523 286.877 501.522 271.705 503.727 258.694L360.474 616.827H358.313L210.693 286.877C208.532 278.232 206.371 278.232 204.209 273.909V490.907C202.005 506.123 204.209 519.134 210.693 532.189L269.309 610.299V612.461H113.001V610.299L171.617 529.984C178.101 517.016 180.262 501.8 178.101 488.746V250.048C178.101 239.198 175.939 226.144 167.294 217.499L128.174 163.163V161.001H280.116L405.992 441.024L516.738 161.001H664.357V163.163L623.119 210.928C618.796 215.251 616.635 221.778 616.635 226.101V556.05C616.635 560.372 618.796 566.9 623.119 569.061H623.076Z" fill="#BDBDBD" stroke="#BDBDBD" stroke-width="0.00256"/>
<path fill-rule="evenodd" clip-rule="evenodd" d="M671.979 0.00128174C730.579 0.00128174 778.081 47.5048 778.081 106.103V671.979C778.081 730.58 730.579 778.081 671.979 778.081H106.103C47.5048 778.081 0.0012207 730.58 0.0012207 671.979V106.103C0.0012207 47.5048 47.5048 0.00128174 106.103 0.00128174H671.979ZM671.979 70.7358C691.513 70.7358 707.347 86.5705 707.347 106.103V671.979C707.347 691.513 691.513 707.347 671.979 707.347H106.103C86.5704 707.347 70.7358 691.513 70.7358 671.979V106.103C70.7358 86.5705 86.5704 70.7358 106.103 70.7358H671.979Z" fill="#BDBDBD" stroke="#BDBDBD" stroke-width="0.00256"/>
</svg>
