<svg width="128" height="128" viewBox="0 0 128 128" fill="none" xmlns="http://www.w3.org/2000/svg">
<g clip-path="url(#clip0_52_131)">
<path d="M20.2859 16.507L78.0977 12.2375C85.1988 11.6281 87.0234 12.039 91.4883 15.2847L109.943 28.2855C112.987 30.5211 114 31.1308 114 33.5652V104.865C114 109.333 112.377 111.976 106.697 112.38L39.5625 116.445C35.2996 116.646 33.2695 116.037 31.0371 113.192L17.4477 95.5211C15.0102 92.2683 14 89.8336 14 86.9883V23.6117C14 19.9586 15.623 16.9113 20.2859 16.507Z" fill="white"/>
<path d="M78.0977 12.2375L20.2859 16.507C15.623 16.9113 14 19.9586 14 23.6117V86.9886C14 89.834 15.0098 92.2683 17.4477 95.5211L31.0371 113.192C33.2695 116.037 35.2996 116.646 39.5625 116.445L106.697 112.38C112.373 111.976 114 109.333 114 104.865V33.5652C114 31.2562 113.087 30.591 110.402 28.6199L109.939 28.2855L91.4883 15.2847C87.0234 12.039 85.1992 11.6281 78.0977 12.2375ZM41.0809 32.3984C35.5992 32.7676 34.3559 32.8511 31.2426 30.3191L23.3266 24.0226C22.5219 23.2078 22.9258 22.1906 24.9527 21.9886L80.5285 17.9281C85.1953 17.5207 87.6262 19.1468 89.4512 20.5679L98.9828 27.4742C99.3902 27.6793 100.404 28.8949 99.1848 28.8949L41.7914 32.3496L41.0809 32.3984ZM34.6902 104.255V43.7273C34.6902 41.084 35.5016 39.8652 37.9324 39.6597L103.852 35.8008C106.088 35.5988 107.098 37.0195 107.098 39.6597V99.7836C107.098 102.427 106.69 104.662 103.04 104.865L39.9594 108.521C36.3098 108.723 34.6902 107.508 34.6902 104.255ZM96.9598 46.9726C97.3637 48.8011 96.9598 50.6297 95.1312 50.8386L92.091 51.441V96.1301C89.4512 97.5508 87.0203 98.3625 84.9895 98.3625C81.7441 98.3625 80.9324 97.3453 78.5016 94.3015L58.6195 63.0207V93.2847L64.9086 94.709C64.9086 94.709 64.9086 98.366 59.8348 98.366L45.8449 99.1773C45.4375 98.3625 45.8449 96.332 47.2629 95.9281L50.9156 94.9144V54.8996L45.8453 54.4886C45.4375 52.6605 46.4508 50.0203 49.293 49.8148L64.3031 48.8051L84.9898 80.4898V52.4586L79.7172 51.8523C79.3098 49.6129 80.9324 47.9867 82.9594 47.7883L96.9594 46.973L96.9598 46.9726Z" fill="black"/>
</g>
<defs>
<clipPath id="clip0_52_131">
<rect width="100" height="104.688" fill="white" transform="translate(14 12)"/>
</clipPath>
</defs>
</svg>
