<svg width="128" height="128" viewBox="0 0 128 128" fill="none" xmlns="http://www.w3.org/2000/svg">
<g clip-path="url(#clip0_52_144)">
<path d="M92.4962 114.388C91.778 119.637 86.6118 123.753 81.4459 122.317C74.1253 120.328 65.6446 117.178 58.0199 116.598L46.3069 115.714C44.4253 115.582 42.6569 114.766 41.3344 113.421L21.1681 92.7579C20.097 91.6572 19.3819 90.2597 19.1158 88.7472C18.8497 87.2346 19.0449 85.6769 19.6761 84.2768C19.6761 84.2768 32.1073 57.0385 32.6048 55.6297C33.0467 54.2207 34.7598 41.8446 35.7541 35.2145C36.0329 33.4541 36.9112 31.844 38.2403 30.6565L62.053 9.32932C62.8376 8.62553 63.7577 8.08951 64.757 7.75416C65.7562 7.4188 66.8134 7.29119 67.8637 7.37916C68.914 7.46713 69.9352 7.76882 70.8647 8.2657C71.7942 8.76259 72.6124 9.4442 73.2689 10.2687L93.3249 35.5735C94.4472 37.0185 95.0505 38.7993 95.0377 40.6289C95.0377 45.4081 95.4522 55.2701 98.1314 61.6242C100.79 67.3385 104.09 72.7323 107.966 77.7019C108.435 78.3113 108.712 79.0468 108.762 79.8145C108.811 80.5821 108.63 81.347 108.242 82.0113C106.502 84.9673 103.021 90.658 98.1314 97.9231C95.0359 102.919 93.1007 108.545 92.4685 114.388H92.4962V114.388Z" fill="black" fill-opacity="0.3"/>
<path d="M92.6896 113.504C91.9714 118.781 86.8055 122.897 81.6393 121.488C74.3465 119.471 65.8928 116.322 58.2411 115.742L46.5555 114.858C44.6694 114.721 42.8997 113.895 41.583 112.538L21.4166 91.8186C20.3352 90.7069 19.6143 89.2948 19.3482 87.7669C19.0821 86.239 19.2831 84.6664 19.925 83.2545C19.925 83.2545 32.3836 55.9058 32.8533 54.4693C33.323 53.0606 35.0084 40.6567 36.0026 33.9714C36.2754 32.2011 37.1541 30.5802 38.4889 29.3856L62.302 7.97619C63.0883 7.274 64.0099 6.73996 65.0101 6.40687C66.0103 6.07378 67.068 5.94866 68.1184 6.0392C69.1687 6.12974 70.1894 6.43403 71.1179 6.93337C72.0463 7.43272 72.8629 8.11659 73.5175 8.94298L93.546 34.3581C94.6644 35.8053 95.2671 37.5847 95.2585 39.4136C95.2585 44.2205 95.6733 54.1103 98.3252 60.4915C100.982 66.2329 104.281 71.6545 108.16 76.6525C108.639 77.2617 108.925 78.0009 108.979 78.7742C109.033 79.5476 108.853 80.3193 108.464 80.9894C106.695 83.9731 103.242 89.6638 98.3252 96.9844C95.2409 102.003 93.3156 107.647 92.6896 113.504Z" fill="#6C31E3"/>
<path d="M43.7377 114.084C53.1026 95.1059 52.8537 81.4868 48.8484 71.8177C45.202 62.8673 38.3785 57.2318 33.0193 53.7235C32.912 54.2384 32.7451 54.739 32.5218 55.2152L19.925 83.2548C19.2865 84.6692 19.09 86.2435 19.361 87.7716C19.6321 89.2996 20.3581 90.7102 21.4441 91.8188L41.583 112.537C42.2142 113.165 42.9417 113.687 43.7377 114.084Z" fill="url(#paint0_radial_52_144)"/>
<path d="M69.208 75.5749C71.737 75.8233 74.2246 76.3895 76.6119 77.26C84.2915 80.133 91.2805 86.5975 97.0543 99.0565C97.4687 98.3383 97.8829 97.6474 98.3252 96.9844C101.854 91.7486 105.234 86.4148 108.464 80.9894C108.857 80.322 109.041 79.5517 108.992 78.7784C108.943 78.0052 108.662 77.2645 108.187 76.6525C104.299 71.6558 100.991 66.2341 98.3252 60.4915C95.673 54.1377 95.2862 44.2205 95.2585 39.4136C95.2585 37.5904 94.6784 35.7946 93.546 34.3581L73.5175 8.94295L73.186 8.52881C74.6502 13.3628 74.5676 17.2307 73.6557 20.7389C72.827 23.9986 71.2802 26.9546 69.65 30.0764C69.0977 31.1262 68.545 32.2034 68.0201 33.3083C65.4222 38.2702 63.933 43.7372 63.6555 49.3312C63.3791 56.0165 64.7326 64.3868 69.1806 75.5753H69.208V75.5749Z" fill="url(#paint1_radial_52_144)"/>
<path d="M69.1806 75.5749C64.7327 64.3867 63.3791 56.0164 63.6555 49.3307C63.9318 42.701 65.8654 37.7285 68.0201 33.3083L69.6777 30.0764C71.2802 26.9545 72.7996 23.9985 73.6557 20.7389C74.6727 16.7079 74.5097 12.4696 73.186 8.52875C70.3257 5.38578 65.4657 5.13898 62.3016 7.97609L38.4892 29.3855C37.1545 30.5801 36.2757 32.201 36.003 33.9713L33.1026 53.1983C33.1026 53.3916 33.047 53.5576 33.0196 53.7509C38.3788 57.2317 45.1745 62.8673 48.8487 71.7903C49.567 73.5583 50.1748 75.4093 50.6167 77.4258C56.6536 75.7518 62.9312 75.1166 69.181 75.5474V75.5749H69.1806Z" fill="url(#paint2_radial_52_144)"/>
<path d="M81.6671 121.488C86.8055 122.897 91.9714 118.781 92.6896 113.477C93.2779 108.445 94.7657 103.561 97.082 99.0565C91.2805 86.5971 84.2915 80.133 76.6394 77.26C68.4902 74.2214 59.6223 75.2434 50.6164 77.4259C52.6329 86.5701 51.445 98.5316 43.7655 114.084C44.6219 114.526 45.5887 114.775 46.5555 114.858L58.683 115.769C65.2575 116.239 75.0647 119.637 81.6671 121.488V121.488Z" fill="url(#paint3_radial_52_144)"/>
<path d="M63.7107 48.9166C63.4069 55.5467 64.2355 63.1162 68.6832 74.2766L67.3019 74.1384C63.2962 62.5084 62.4123 56.5413 62.7161 49.8282C62.9924 43.1155 65.1749 37.9493 67.3296 33.5294C67.8819 32.4245 69.1528 30.3524 69.7055 29.3026C71.3076 26.1811 72.3851 24.5512 73.2967 21.7057C74.6228 17.7277 74.3465 15.8493 74.1805 13.9709C75.2029 20.7389 71.3076 26.623 68.3794 32.6178C65.6685 37.6532 64.0672 43.2107 63.6832 48.9166H63.7107Z" fill="url(#paint4_radial_52_144)"/>
<path d="M50.1745 72.2875C50.7268 73.5032 51.1964 74.4978 51.528 76.0169L50.34 76.2932C49.8704 74.5252 49.5114 73.2547 48.8206 71.7352C44.7875 62.2595 38.3229 57.37 33.0741 53.7788C39.4282 57.2044 45.9754 62.5911 50.1741 72.2875H50.1745Z" fill="url(#paint5_radial_52_144)"/>
<path d="M51.5832 77.2325C53.7931 87.592 51.3068 100.769 43.9863 113.587C50.1193 100.88 53.1026 88.6966 50.6164 77.3981L51.5832 77.2047V77.2325Z" fill="url(#paint6_radial_52_144)"/>
<path d="M76.8879 76.2658C88.9047 80.7686 93.546 90.6306 96.9991 98.8906C92.717 90.2717 86.7777 80.7408 76.446 77.2048C68.6002 74.4978 61.9704 74.829 50.6164 77.3982L50.3678 76.2932C62.4123 73.5306 68.7109 73.1995 76.8879 76.2932V76.2658Z" fill="url(#paint7_radial_52_144)"/>
</g>
<defs>
<radialGradient id="paint0_radial_52_144" cx="0" cy="0" r="1" gradientUnits="userSpaceOnUse" gradientTransform="translate(10039 101.677) rotate(-104) scale(5279.83 9886.68)">
<stop stop-color="white" stop-opacity="0.4"/>
<stop offset="1" stop-opacity="0.1"/>
</radialGradient>
<radialGradient id="paint1_radial_52_144" cx="0" cy="0" r="1" gradientUnits="userSpaceOnUse" gradientTransform="translate(11739.1 2467.49) rotate(-82) scale(8638.34 17232.9)">
<stop stop-color="white" stop-opacity="0.6"/>
<stop offset="1" stop-color="white" stop-opacity="0.1"/>
</radialGradient>
<radialGradient id="paint2_radial_52_144" cx="0" cy="0" r="1" gradientUnits="userSpaceOnUse" gradientTransform="translate(9994.31 3972.49) rotate(-77) scale(7380 12764.8)">
<stop stop-color="white" stop-opacity="0.8"/>
<stop offset="1" stop-color="white" stop-opacity="0.4"/>
</radialGradient>
<radialGradient id="paint3_radial_52_144" cx="0" cy="0" r="1" gradientUnits="userSpaceOnUse" gradientTransform="translate(3872.59 7.82763e+06) scale(4909.71 4273.45)">
<stop stop-color="white" stop-opacity="0.3"/>
<stop offset="1" stop-opacity="0.3"/>
</radialGradient>
<radialGradient id="paint4_radial_52_144" cx="0" cy="0" r="1" gradientUnits="userSpaceOnUse" gradientTransform="translate(-2759.66 1294.04) rotate(102) scale(3841.5 19824.2)">
<stop stop-color="white" stop-opacity="0"/>
<stop offset="1" stop-color="white" stop-opacity="0.2"/>
</radialGradient>
<radialGradient id="paint5_radial_52_144" cx="0" cy="0" r="1" gradientUnits="userSpaceOnUse" gradientTransform="translate(-94.1794 -350.873) rotate(45) scale(2832.52 3455.78)">
<stop stop-color="white" stop-opacity="0.2"/>
<stop offset="1" stop-color="white" stop-opacity="0.4"/>
</radialGradient>
<radialGradient id="paint6_radial_52_144" cx="0" cy="0" r="1" gradientUnits="userSpaceOnUse" gradientTransform="translate(1990.35 -541.073) rotate(80) scale(3306.24 14362.8)">
<stop stop-color="white" stop-opacity="0.1"/>
<stop offset="1" stop-color="white" stop-opacity="0.3"/>
</radialGradient>
<radialGradient id="paint7_radial_52_144" cx="0" cy="0" r="1" gradientUnits="userSpaceOnUse" gradientTransform="translate(4683.09 -1.36324e+07) scale(9504.57 5053.87)">
<stop stop-color="white" stop-opacity="0.2"/>
<stop offset="0.5" stop-color="white" stop-opacity="0.2"/>
<stop offset="1" stop-color="white" stop-opacity="0.3"/>
</radialGradient>
<clipPath id="clip0_52_144">
<rect width="90" height="116.719" fill="white" transform="translate(19 6)"/>
</clipPath>
</defs>
</svg>
