<svg width="128" height="128" viewBox="0 0 128 128" fill="none" xmlns="http://www.w3.org/2000/svg">
<path d="M63.6406 14C38.2531 14 39.8375 25.0094 39.8375 25.0094L39.8687 36.4156H64.0937V39.8375H30.2406C30.2406 39.8375 14 37.9938 14 63.6125C14 89.225 28.1781 88.3188 28.1781 88.3188H36.6406V76.4313C36.6406 76.4313 36.1844 62.2531 50.5937 62.2531H74.6187C74.6187 62.2531 88.1187 62.4719 88.1187 49.2063V27.2719C88.1187 27.2719 90.1688 14 63.6406 14ZM50.2813 21.6688C52.6906 21.6688 54.6406 23.6188 54.6406 26.0281C54.6406 28.4375 52.6906 30.3875 50.2813 30.3875C49.7085 30.3883 49.1413 30.2761 48.612 30.0573C48.0827 29.8385 47.6018 29.5175 47.1969 29.1125C46.7919 28.7075 46.4708 28.2266 46.252 27.6974C46.0332 27.1681 45.9211 26.6008 45.9219 26.0281C45.9219 23.6188 47.8719 21.6688 50.2813 21.6688Z" fill="url(#paint0_linear_55_54)"/>
<path d="M64.3594 113.478C89.7469 113.478 88.1625 102.469 88.1625 102.469L88.1312 91.0624H63.9062V87.6406H97.7562C97.7562 87.6406 114 89.4843 114 63.8687C114 38.2531 99.8219 39.1624 99.8219 39.1624H91.3594V51.0468C91.3594 51.0468 91.8156 65.2249 77.4063 65.2249H53.3812C53.3812 65.2249 39.8812 65.0062 39.8812 78.2718V100.206C39.8812 100.206 37.8313 113.478 64.3594 113.478ZM77.7187 105.809C77.146 105.81 76.5788 105.698 76.0495 105.479C75.5202 105.26 75.0393 104.939 74.6344 104.534C74.2294 104.129 73.9083 103.648 73.6895 103.119C73.4707 102.59 73.3585 102.023 73.3594 101.45C73.3594 99.0437 75.3094 97.0937 77.7187 97.0937C80.1281 97.0937 82.0781 99.0406 82.0781 101.45C82.0781 103.862 80.1281 105.809 77.7187 105.809Z" fill="url(#paint1_linear_55_54)"/>
<defs>
<linearGradient id="paint0_linear_55_54" x1="23.6094" y1="22.6937" x2="73.0563" y2="72.3062" gradientUnits="userSpaceOnUse">
<stop stop-color="#387EB8"/>
<stop offset="1" stop-color="#366994"/>
</linearGradient>
<linearGradient id="paint1_linear_55_54" x1="54.0281" y1="54.2562" x2="107.134" y2="105.134" gradientUnits="userSpaceOnUse">
<stop stop-color="#FFE052"/>
<stop offset="1" stop-color="#FFC331"/>
</linearGradient>
</defs>
</svg>
