<svg width="128" height="128" viewBox="0 0 128 128" fill="none" xmlns="http://www.w3.org/2000/svg">
<path d="M73 63.5508C73 68.5213 68.9706 72.5508 64 72.5508C59.0294 72.5508 55 68.5213 55 63.5508C55 58.5802 59.0294 54.5508 64 54.5508C68.9706 54.5508 73 58.5802 73 63.5508Z" fill="#58C4DC" stroke="#58C4DC" stroke-width="2"/>
<path d="M64 86.0508C91.6142 86.0508 114 75.9772 114 63.5508C114 51.1244 91.6142 41.0508 64 41.0508C36.3858 41.0508 14 51.1244 14 63.5508C14 75.9772 36.3858 86.0508 64 86.0508Z" stroke="#58C4DC" stroke-width="2"/>
<path d="M44.5145 74.8013C58.3216 98.7159 78.2384 113.066 89 106.853C99.7616 100.639 97.2927 76.2159 83.4856 52.3013C69.6785 28.3866 49.7616 14.0368 39 20.25C28.2384 26.4632 30.7073 50.8866 44.5145 74.8013Z" stroke="#58C4DC" stroke-width="2"/>
<path d="M44.5145 52.3013C30.7073 76.2159 28.2384 100.639 39 106.853C49.7616 113.066 69.6785 98.7159 83.4856 74.8013C97.2927 50.8866 99.7616 26.4632 89 20.25C78.2384 14.0368 58.3216 28.3866 44.5145 52.3013Z" stroke="#58C4DC" stroke-width="2"/>
</svg>
