<svg width="1124" height="1124" viewBox="0 0 1124 1124" fill="none" xmlns="http://www.w3.org/2000/svg">
<g filter="url(#filter0_d_47_257)">
<rect x="45" y="45" width="1024" height="1024" rx="180" fill="white"/>
<path d="M519.339 758.673C520.576 751.765 515.898 745.176 508.892 743.955L497.731 742.014C490.725 740.796 484.046 745.409 482.81 752.322L476.946 785.127C476.6 787.065 475.876 788.915 474.815 790.573C473.754 792.231 472.377 793.663 470.762 794.789C469.148 795.914 467.327 796.71 465.405 797.132C463.482 797.553 461.495 797.592 459.558 797.245L459.498 797.235L439.492 793.572C432.549 792.368 426.033 796.863 424.827 803.609C423.608 810.425 428.188 816.941 435.089 818.205L480.125 826.447C480.887 826.737 481.689 826.959 482.523 827.104L493.684 829.044C495.528 829.368 497.419 829.29 499.229 828.815C503.897 827.666 507.678 823.909 508.57 818.934C508.582 818.844 512.174 798.756 519.339 758.673Z" fill="#6FCB6C"/>
<path d="M433.738 825.57C422.799 823.567 415.501 813.187 417.449 802.288C419.387 791.436 429.814 784.283 440.838 786.201L460.844 789.868C461.814 790.044 462.81 790.027 463.774 789.818C464.738 789.608 465.652 789.211 466.462 788.649C467.272 788.086 467.964 787.369 468.497 786.539C469.03 785.709 469.394 784.782 469.568 783.811L475.432 751.003C477.398 740.011 487.965 732.714 499.012 734.634L510.173 736.575C521.247 738.5 528.683 748.975 526.712 759.989L515.943 820.248C515.263 824.031 513.502 827.537 510.874 830.342C508.245 833.147 504.861 835.131 501.13 836.055C498.278 836.804 495.299 836.929 492.396 836.42L481.234 834.479C480.197 834.299 479.175 834.039 478.177 833.702L433.738 825.57ZM507.608 751.338L496.447 749.4C493.482 748.885 490.692 750.811 490.185 753.641L484.321 786.449C483.802 789.354 482.715 792.129 481.124 794.615C479.532 797.101 477.466 799.249 475.044 800.936C472.622 802.624 469.891 803.817 467.008 804.449C464.124 805.081 461.145 805.138 458.239 804.618L438.208 800.952C435.314 800.447 432.681 802.256 432.204 804.921C431.715 807.66 433.576 810.305 436.44 810.827L482.146 819.197L482.782 819.439C483.107 819.561 483.452 819.656 483.809 819.714L494.971 821.654C495.775 821.799 496.569 821.759 497.443 821.532C499.381 821.055 500.855 819.524 501.194 817.618L511.966 757.354C512.463 754.557 510.543 751.85 507.608 751.338Z" fill="#524F75"/>
<path d="M657.334 740.713C655.162 733.962 647.986 730.268 641.303 732.461L630.655 735.955C623.975 738.148 620.316 745.393 622.486 752.142L633.008 784.847C634.22 788.614 633.893 792.706 632.099 796.233C630.305 799.759 627.19 802.433 623.433 803.672L605.607 809.548C599.029 811.716 595.437 818.854 597.573 825.5C599.718 832.146 606.784 835.765 613.342 833.602L668.226 815.51C674.805 813.342 678.396 806.204 676.261 799.558C676.238 799.473 669.927 779.857 657.334 740.713Z" fill="#6FCB6C"/>
<path d="M683.399 797.263C686.788 807.815 681.076 819.164 670.574 822.626L615.693 840.715C605.163 844.19 593.864 838.383 590.442 827.79C587.051 817.236 592.765 805.884 603.262 802.433L621.09 796.554C622.968 795.933 624.526 794.596 625.422 792.833C626.319 791.07 626.483 789.024 625.878 787.14L615.355 754.432C611.926 743.773 617.706 732.311 628.315 728.83L638.965 725.336C649.61 721.846 661.023 727.721 664.467 738.41L683.399 797.263ZM643.638 739.582L632.988 743.073C630.233 743.977 628.702 747.012 629.614 749.852L640.136 782.557C643.925 794.318 637.504 806.923 625.778 810.792L607.948 816.671C605.295 817.548 603.824 820.47 604.698 823.2C605.575 825.905 608.392 827.351 610.995 826.489L665.879 808.399C668.531 807.523 670.005 804.598 669.128 801.866L650.191 743.013C649.297 740.201 646.36 738.688 643.638 739.582Z" fill="#524F75"/>
<path d="M522.326 545.246C490.383 555.077 466.389 561.893 450.334 565.692C434.29 569.498 416.175 572.652 395.992 575.17C394.409 581.548 391.21 585.914 386.407 588.269C379.204 591.801 366.381 598.659 357.38 596.536C348.371 594.418 342.03 592.046 337.352 578.949C332.672 565.856 335.669 552.27 341.223 546.368C346.78 540.466 358.566 536.283 365.927 534.739C370.834 533.713 376.501 535.281 382.928 539.45C407.336 528.103 426.225 519.959 439.597 515.018C452.969 510.078 476.781 502.441 511.043 492.111" fill="#70C56E"/>
<path d="M389.713 594.995C389.389 595.15 389.049 595.32 388.577 595.555L387.323 596.174C386.244 596.704 385.4 597.121 384.541 597.53C380.752 599.354 377.498 600.75 374.241 601.876C367.313 604.274 361.211 605.136 355.664 603.827C342.042 600.62 335.324 595.535 330.296 581.466C325.064 566.825 327.576 549.922 335.768 541.225C341.87 534.747 353.601 529.667 364.386 527.404C370.397 526.143 376.731 527.446 383.344 530.99C406.202 520.428 424.067 512.766 436.992 507.988C450.551 502.983 474.478 495.313 508.874 484.94C509.817 484.656 510.805 484.56 511.785 484.658C512.764 484.756 513.714 485.046 514.581 485.511C515.448 485.977 516.215 486.608 516.839 487.37C517.462 488.131 517.929 489.008 518.213 489.951C518.497 490.893 518.593 491.882 518.495 492.861C518.397 493.84 518.107 494.79 517.642 495.657C517.177 496.524 516.545 497.292 515.783 497.915C515.022 498.538 514.145 499.005 513.203 499.289C479.081 509.579 455.379 517.179 442.192 522.049C429.047 526.907 410.323 534.977 386.084 546.248C384.934 546.782 383.667 547.016 382.401 546.927C381.136 546.839 379.914 546.43 378.849 545.741C373.939 542.557 370.167 541.513 367.463 542.077C359.403 543.765 350.219 547.747 346.678 551.505C342.602 555.836 340.971 566.803 344.413 576.431C347.557 585.222 350.062 587.121 359.103 589.246C361.331 589.771 364.853 589.271 369.343 587.722C371.971 586.813 374.74 585.625 378.06 584.026C379.748 583.205 381.433 582.377 383.115 581.541C385.807 580.222 387.648 577.71 388.729 573.359C389.096 571.891 389.898 570.568 391.03 569.564C392.162 568.56 393.572 567.922 395.073 567.735C414.996 565.249 432.844 562.135 448.621 558.404C464.47 554.645 488.332 547.866 520.136 538.081C522.035 537.497 524.089 537.691 525.845 538.621C527.601 539.551 528.916 541.14 529.501 543.04C530.085 544.939 529.891 546.993 528.961 548.749C528.031 550.505 526.441 551.82 524.542 552.405C492.453 562.28 468.317 569.133 452.072 572.982C437.005 576.553 420.194 579.556 401.622 582.003C399.149 587.887 395.16 592.321 389.711 594.995H389.713Z" fill="#524F75"/>
<path d="M338.209 561.376L356.97 555.042C357.44 554.868 357.94 554.791 358.44 554.814C358.941 554.837 359.431 554.96 359.883 555.175C360.335 555.391 360.739 555.695 361.072 556.07C361.404 556.445 361.658 556.882 361.818 557.357C361.979 557.831 362.042 558.333 362.005 558.833C361.968 559.332 361.832 559.819 361.603 560.265C361.375 560.71 361.059 561.106 360.675 561.427C360.291 561.749 359.847 561.991 359.368 562.138L340.606 568.474C340.139 568.638 339.643 568.709 339.148 568.68C338.652 568.652 338.168 568.525 337.722 568.308C337.276 568.091 336.878 567.787 336.55 567.415C336.223 567.042 335.972 566.609 335.813 566.139C335.655 565.669 335.591 565.172 335.626 564.678C335.66 564.183 335.793 563.7 336.016 563.257C336.239 562.814 336.547 562.419 336.924 562.096C337.3 561.773 337.737 561.529 338.209 561.376ZM343.941 576.006L362.705 569.67C363.636 569.387 364.641 569.478 365.506 569.922C366.372 570.367 367.03 571.131 367.343 572.053C367.655 572.974 367.596 573.981 367.179 574.861C366.762 575.74 366.019 576.422 365.107 576.763L346.343 583.105C345.402 583.422 344.373 583.353 343.482 582.912C342.591 582.471 341.912 581.695 341.593 580.754C341.435 580.288 341.371 579.796 341.403 579.305C341.436 578.814 341.565 578.335 341.783 577.894C342.001 577.453 342.304 577.059 342.674 576.736C343.044 576.412 343.475 576.164 343.941 576.006Z" fill="#524F75"/>
<path d="M736.232 618.682C745.556 622.264 748.618 642.164 745.413 678.389L689.456 656.902C711.312 627.843 726.907 615.103 736.232 618.682Z" fill="#B0E6BB"/>
<path d="M738.213 637.631C737.184 630.049 735.341 626.4 733.847 625.798C732.356 625.196 728.498 626.54 722.491 631.277C716.594 635.925 709.531 643.203 701.369 653.079L738.26 667.987C739.252 655.214 739.224 645.071 738.213 637.631ZM739.462 611.904C753.463 617.566 756.475 639.664 752.244 679.498C752.122 680.651 751.733 681.759 751.11 682.737C750.486 683.714 749.644 684.533 748.65 685.13C747.656 685.727 746.537 686.085 745.381 686.176C744.226 686.267 743.064 686.088 741.989 685.654L686.414 663.201C685.338 662.767 684.379 662.089 683.61 661.221C682.842 660.353 682.285 659.318 681.984 658.199C681.684 657.079 681.647 655.904 681.877 654.768C682.108 653.632 682.599 652.564 683.312 651.65C707.945 620.053 725.458 606.244 739.462 611.904Z" fill="#524F75"/>
<path d="M788.164 635.054C795.834 636.972 800.083 652.614 800.912 681.993L754.867 670.512C769.393 644.962 780.487 633.141 788.164 635.054Z" fill="#B0E6BB"/>
<path d="M790.155 650.556C788.956 645.014 787.535 642.669 787.043 642.517C786.556 642.364 784.063 643.516 779.975 647.442C775.956 651.295 771.256 657.087 765.931 664.79L792.098 672.789C791.983 663.426 791.331 655.996 790.155 650.556ZM791.424 628.186C803.934 632.009 807.808 649.929 807.003 683.074C806.974 684.23 806.678 685.363 806.139 686.385C805.599 687.408 804.831 688.292 803.894 688.968C802.956 689.644 801.875 690.095 800.735 690.284C799.595 690.474 798.426 690.397 797.32 690.06L751.937 676.184C750.832 675.845 749.82 675.256 748.981 674.462C748.141 673.667 747.497 672.69 747.098 671.605C746.699 670.52 746.557 669.358 746.682 668.209C746.807 667.06 747.196 665.956 747.819 664.982C765.686 637.054 778.921 624.367 791.424 628.186Z" fill="#524F75"/>
<path d="M834.614 646.98C841.662 647.599 847.624 660.659 852.496 686.156L810.195 682.455C819.424 658.191 827.563 646.365 834.614 646.98Z" fill="#B0E6BB"/>
<path d="M833.19 654.869C832.077 655.754 830.7 657.387 829.184 659.767C826.707 663.658 824.057 669.18 821.292 676.286L843.49 677.45C841.482 670.092 839.429 664.323 837.366 660.197C836.108 657.674 834.914 655.903 833.892 654.909C833.786 654.803 833.675 654.702 833.56 654.605C833.434 654.688 833.31 654.777 833.19 654.869ZM834.347 639.459C846.545 640.099 853.918 654.859 860.506 683.801C861.605 688.646 857.766 693.21 852.809 692.947L810.403 690.722C809.246 690.66 808.12 690.332 807.111 689.762C806.103 689.192 805.24 688.396 804.591 687.437C803.942 686.478 803.523 685.382 803.368 684.234C803.214 683.086 803.327 681.918 803.699 680.822C813.282 652.729 822.159 638.818 834.347 639.459Z" fill="#524F75"/>
<path d="M484.678 753.171C438.338 754.742 403.275 726.604 401.717 679.99C401.567 675.534 403.423 629.409 408.083 595.647C410.526 577.955 415.378 542.164 422.641 488.292C426.235 461.638 408.078 436.925 381.569 432.384C347 426.465 323.296 422.024 310.456 419.062C283.367 412.811 264.785 393.752 264.785 366.386C264.785 338.958 289.541 324.292 316.747 322.452C400.233 322.204 443.046 322.204 445.187 322.452L544.095 322.229C607.98 322.229 659.765 374.323 659.765 438.586V586.883C659.765 625.461 685.052 659.477 721.999 670.592C741.7 676.518 753.263 679.78 756.688 680.372C806.654 689.006 832.209 681.099 864.854 687.952C872.582 689.57 898.252 701.741 859.502 713.782C821.344 725.635 740.366 745.216 652.584 753.171C594.059 758.473 538.096 758.473 484.678 753.171Z" fill="#70C56E"/>
<path d="M484.678 753.171C538.094 758.473 594.059 758.473 652.584 753.171C740.364 745.214 821.339 725.635 859.502 713.782C898.252 701.746 872.574 689.575 864.854 687.952C832.216 681.099 806.654 689.006 756.688 680.372C753.263 679.78 741.7 676.518 721.999 670.592C685.052 659.482 659.765 625.466 659.765 586.883V438.586C659.765 374.323 607.98 322.229 544.095 322.229L445.184 322.452C443.044 322.204 400.228 322.204 316.745 322.452C289.541 324.29 264.785 338.955 264.785 366.386C264.785 393.752 283.372 412.811 310.461 419.062C323.301 422.024 347.005 426.465 381.574 432.384C408.083 436.922 426.24 461.638 422.646 488.292C415.383 542.167 410.531 577.955 408.088 595.647C403.428 629.409 401.572 675.529 401.722 679.99C403.28 726.604 438.341 754.742 484.678 753.171ZM386.744 680.487C386.382 669.672 389.439 621.15 393.242 593.599C395.683 575.926 400.533 540.151 407.796 486.292C410.311 467.632 397.601 450.334 379.044 447.157C344.205 441.191 320.294 436.71 307.089 433.665C272.573 425.698 249.8 400.276 249.8 366.386C249.8 331.912 278.46 310.021 315.736 307.501C397.623 307.229 436.385 307.206 445.152 307.474L544.095 307.244C616.272 307.244 674.75 366.066 674.75 438.586V586.883C674.751 602.45 679.767 617.603 689.055 630.096C698.343 642.589 711.408 651.758 726.315 656.243C745.134 661.905 756.71 665.164 759.24 665.604C780.027 669.195 793.704 669.922 820.056 669.832C832.374 669.79 837.601 669.852 844.412 670.247C852.684 670.724 860.281 671.673 867.936 673.281C877.31 675.252 888.104 681.071 892.822 689.888C897.46 698.564 895.592 708.422 888.257 715.6C883.082 720.665 875.164 724.601 863.95 728.085C810.657 744.642 729.696 761.228 653.94 768.096C594.853 773.451 538.261 773.481 484.171 768.176C429.24 769.59 388.542 734.332 386.744 680.487Z" fill="#524F75"/>
<path d="M459.727 534.522H479.448C486.923 534.522 494.2 536.917 500.213 541.356C506.227 545.796 510.659 552.045 512.861 559.188C521.674 587.78 526.814 606.729 528.283 616.03C529.424 623.255 530.868 640.606 532.614 668.089C534.714 701.129 509.634 729.614 476.594 731.712C475.328 731.793 474.06 731.833 472.792 731.834H472.495C440.551 731.834 414.656 705.939 414.656 673.996C414.656 672.118 414.749 670.239 414.929 668.371L424.924 566.096C426.675 548.179 441.735 534.522 459.727 534.522Z" fill="white"/>
<path d="M339.712 326.575L340.449 314.861C340.446 307.896 346.413 302.249 353.766 302.249C361.121 302.249 367.001 307.324 369.226 314.861L369.683 327.224" fill="#6FCB6C"/>
<path d="M362.19 327.499C362.226 328.482 362.456 329.449 362.865 330.344C363.275 331.238 363.857 332.043 364.578 332.713C365.298 333.383 366.144 333.904 367.066 334.247C367.989 334.59 368.969 334.748 369.953 334.712C370.936 334.676 371.902 334.447 372.797 334.037C373.692 333.627 374.497 333.046 375.167 332.325C375.836 331.604 376.358 330.758 376.701 329.836C377.044 328.914 377.202 327.933 377.166 326.95L376.678 313.645L376.411 312.741C373.249 302.019 364.483 294.756 353.766 294.756C342.452 294.756 333.104 303.525 332.956 314.597L332.229 326.103C332.168 327.085 332.3 328.07 332.619 329.001C332.937 329.932 333.436 330.791 334.087 331.529C334.738 332.267 335.528 332.87 336.411 333.303C337.295 333.736 338.255 333.991 339.238 334.053C340.22 334.115 341.204 333.982 342.135 333.664C343.067 333.345 343.926 332.846 344.664 332.195C345.402 331.544 346.005 330.755 346.438 329.871C346.871 328.987 347.125 328.027 347.187 327.045L347.924 315.333L347.939 314.861C347.939 312.129 350.462 309.741 353.766 309.741C357.295 309.741 360.299 312.057 361.776 316.178L362.19 327.499Z" fill="#524F75"/>
<path d="M352.557 315.873C354.922 315.873 356.838 317.791 356.838 320.154V322.944C356.837 324.079 356.386 325.167 355.583 325.969C354.781 326.772 353.692 327.222 352.557 327.222C351.422 327.222 350.334 326.772 349.531 325.969C348.728 325.167 348.277 324.079 348.276 322.944V320.154C348.276 319.591 348.386 319.035 348.601 318.515C348.816 317.995 349.131 317.523 349.529 317.125C349.926 316.728 350.399 316.412 350.918 316.198C351.438 315.983 351.995 315.872 352.557 315.873Z" fill="#4E904C"/>
<path d="M292.259 326.575L293.053 314.861C293.05 307.896 299.474 302.249 307.396 302.249C315.319 302.249 321.74 307.896 321.74 314.861L322.229 327.224" fill="#6FCB6C"/>
<path d="M307.396 294.756C295.635 294.756 285.725 303.383 285.56 314.577L284.781 326.068C284.705 327.055 284.825 328.047 285.135 328.987C285.444 329.927 285.937 330.796 286.585 331.545C287.232 332.293 288.021 332.906 288.907 333.348C289.793 333.79 290.757 334.051 291.744 334.118C292.732 334.185 293.723 334.056 294.66 333.738C295.597 333.42 296.462 332.919 297.205 332.265C297.947 331.611 298.553 330.816 298.986 329.926C299.42 329.037 299.673 328.07 299.731 327.082L300.526 315.368L300.543 314.861C300.543 312.264 303.41 309.741 307.396 309.741C311.38 309.741 314.247 312.264 314.247 314.861L314.252 315.156L314.742 327.519C314.78 328.502 315.012 329.468 315.424 330.362C315.836 331.255 316.42 332.059 317.143 332.727C317.866 333.395 318.713 333.913 319.636 334.254C320.56 334.594 321.541 334.749 322.524 334.71C323.507 334.671 324.473 334.439 325.367 334.027C326.26 333.615 327.064 333.031 327.732 332.308C328.399 331.585 328.918 330.738 329.258 329.815C329.599 328.892 329.754 327.91 329.714 326.927L329.232 314.694C329.135 303.443 319.2 294.756 307.396 294.756Z" fill="#524F75"/>
<path d="M306.09 315.873C308.638 315.873 310.701 317.938 310.701 320.483V322.616C310.7 323.839 310.213 325.011 309.349 325.875C308.484 326.739 307.311 327.224 306.089 327.224C304.866 327.224 303.694 326.738 302.83 325.873C301.965 325.009 301.48 323.836 301.479 322.614V320.483C301.479 319.878 301.598 319.278 301.83 318.719C302.061 318.159 302.401 317.651 302.829 317.223C303.257 316.794 303.766 316.455 304.325 316.223C304.885 315.992 305.484 315.873 306.09 315.873Z" fill="#4E904C"/>
<path d="M412.141 309.741C412.141 319.015 415.825 327.909 422.383 334.466C428.94 341.023 437.834 344.707 447.107 344.707C456.381 344.707 465.274 341.023 471.832 334.466C478.389 327.909 482.073 319.015 482.073 309.741C482.073 300.468 478.389 291.574 471.832 285.017C465.274 278.459 456.381 274.776 447.107 274.776C437.834 274.776 428.94 278.459 422.383 285.017C415.825 291.574 412.141 300.468 412.141 309.741Z" fill="white"/>
<path d="M447.107 352.2C423.655 352.2 404.649 333.191 404.649 309.741C404.649 286.292 423.655 267.283 447.107 267.283C470.559 267.283 489.566 286.292 489.566 309.741C489.566 333.191 470.554 352.2 447.107 352.2ZM447.107 337.215C462.28 337.215 474.58 324.914 474.58 309.741C474.58 294.569 462.28 282.268 447.107 282.268C431.935 282.268 419.634 294.569 419.634 309.741C419.634 324.914 431.93 337.215 447.107 337.215Z" fill="#524F75"/>
<path d="M428.675 317.764C429.824 319.094 431.288 320.114 432.934 320.731C434.58 321.347 436.354 321.541 438.094 321.293C439.833 321.045 441.483 320.364 442.891 319.313C444.299 318.261 445.421 316.873 446.152 315.275C446.884 313.677 447.202 311.921 447.078 310.168C446.954 308.415 446.392 306.721 445.443 305.242C444.494 303.763 443.188 302.546 441.646 301.703C440.104 300.861 438.375 300.419 436.618 300.418C433.872 300.417 431.236 301.493 429.274 303.415C427.313 305.336 426.183 307.95 426.128 310.695L433.905 311.824L428.675 317.764Z" fill="#232323"/>
<path d="M482.073 308.493C482.073 314.232 483.204 319.916 485.4 325.219C487.597 330.522 490.816 335.34 494.875 339.398C498.933 343.457 503.752 346.676 509.054 348.873C514.357 351.069 520.041 352.2 525.781 352.2C531.52 352.2 537.204 351.069 542.507 348.873C547.809 346.676 552.628 343.457 556.686 339.398C560.745 335.34 563.964 330.522 566.161 325.219C568.357 319.916 569.488 314.232 569.488 308.493C569.488 302.753 568.357 297.069 566.161 291.767C563.964 286.464 560.745 281.646 556.686 277.587C552.628 273.528 547.809 270.309 542.507 268.112C537.204 265.916 531.52 264.785 525.781 264.785C520.041 264.785 514.357 265.916 509.054 268.112C503.752 270.309 498.933 273.528 494.875 277.587C490.816 281.646 487.597 286.464 485.4 291.767C483.204 297.069 482.073 302.753 482.073 308.493Z" fill="white"/>
<path d="M525.781 359.693C497.503 359.693 474.581 336.77 474.581 308.493C474.581 280.215 497.503 257.293 525.781 257.293C554.058 257.293 576.981 280.215 576.981 308.493C576.981 336.77 554.053 359.693 525.781 359.693ZM525.781 344.707C545.779 344.707 561.995 328.493 561.995 308.493C561.995 288.492 545.779 272.278 525.781 272.278C505.783 272.278 489.566 288.492 489.566 308.493C489.566 328.493 505.778 344.707 525.781 344.707Z" fill="#524F75"/>
<path d="M503.827 319.814C505.934 322.255 508.829 323.881 512.01 324.41C515.191 324.939 518.457 324.337 521.24 322.709C524.024 321.082 526.15 318.531 527.249 315.499C528.348 312.468 528.351 309.147 527.257 306.114C526.163 303.08 524.042 300.526 521.261 298.893C518.481 297.261 515.216 296.653 512.034 297.177C508.852 297.7 505.954 299.321 503.843 301.758C501.731 304.195 500.54 307.294 500.475 310.518L510.708 312.007L503.827 319.814Z" fill="#232323"/>
<path d="M437.894 374.688C443.011 375.1 449.413 388.417 457.098 414.639L422.132 410.216C427.514 386.119 432.769 374.276 437.894 374.688Z" fill="#FFF660"/>
<path d="M434.675 385.288C432.597 389.968 430.444 396.876 428.246 405.955L450.082 408.717C447.172 399.446 444.48 392.246 442.03 387.148C440.594 384.164 439.278 381.978 438.144 380.627C437.991 380.444 437.831 380.267 437.664 380.098C436.797 381.084 435.766 382.825 434.675 385.288ZM461.888 413.235C462.121 414.031 462.153 414.872 461.98 415.683C461.807 416.494 461.435 417.249 460.897 417.88C460.359 418.512 459.673 418.999 458.9 419.299C458.126 419.598 457.291 419.701 456.468 419.597L421.502 415.174C420.812 415.086 420.148 414.856 419.553 414.497C418.957 414.138 418.442 413.659 418.043 413.09C417.643 412.521 417.366 411.875 417.23 411.193C417.094 410.511 417.103 409.808 417.254 409.129C423.386 381.701 429.033 368.969 438.291 369.713C446.76 370.39 453.359 384.116 461.888 413.235Z" fill="#524F75"/>
<path d="M393.125 374.723C399.341 375.547 404.849 387.188 409.644 409.644L372.18 407.451C379.925 384.806 386.906 373.896 393.125 374.723Z" fill="white"/>
<path d="M397.403 386.207C395.303 381.766 393.457 379.806 392.468 379.673C390.228 379.376 385.078 387.006 379.131 402.853L403.295 404.267C401.407 396.529 399.431 390.498 397.403 386.207ZM393.779 369.77C403.17 371.017 409.244 383.862 414.527 408.602C414.687 409.355 414.672 410.134 414.482 410.879C414.292 411.624 413.932 412.316 413.431 412.899C412.93 413.483 412.301 413.943 411.593 414.243C410.885 414.544 410.117 414.677 409.349 414.632L371.886 412.439C371.117 412.394 370.369 412.172 369.7 411.79C369.031 411.408 368.459 410.877 368.03 410.237C367.6 409.598 367.324 408.868 367.224 408.104C367.123 407.34 367.201 406.564 367.45 405.835C376.079 380.615 383.859 368.454 393.779 369.77Z" fill="#524F75"/>
<path d="M345.956 374.693C350.182 375.12 353.928 385.105 357.195 404.649L329.722 401.277C336.32 383.127 341.733 374.266 345.956 374.693Z" fill="white"/>
<path d="M342.989 383.622C341.083 386.741 338.958 391.242 336.64 397.094L351.066 398.864C349.84 392.623 348.564 387.743 347.255 384.256C346.605 382.523 345.969 381.199 345.397 380.313C344.712 381.037 343.893 382.143 342.989 383.622ZM346.461 369.723C354.305 370.515 358.366 381.347 362.12 403.825C362.248 404.591 362.196 405.377 361.967 406.119C361.738 406.862 361.339 407.541 360.802 408.103C360.265 408.664 359.604 409.092 358.872 409.353C358.14 409.614 357.357 409.701 356.586 409.606L329.113 406.232C328.367 406.141 327.652 405.882 327.02 405.476C326.388 405.069 325.856 404.526 325.463 403.886C325.07 403.245 324.827 402.524 324.752 401.777C324.676 401.03 324.77 400.275 325.027 399.569C332.637 378.634 338.568 368.926 346.461 369.723Z" fill="#524F75"/>
<path d="M271.506 400.855C371.416 413.215 431.143 419.829 451.086 420.733C471.778 421.67 490.517 418.201 507.219 410.293C508.715 409.585 509.869 408.31 510.426 406.751C510.983 405.191 510.898 403.474 510.189 401.978C509.481 400.481 508.206 399.327 506.647 398.77C505.087 398.213 503.371 398.298 501.874 399.007C487.081 406.012 470.367 409.104 451.65 408.258C432.184 407.374 372.515 400.765 273.04 388.462C272.223 388.354 271.392 388.41 270.597 388.624C269.801 388.839 269.056 389.209 268.404 389.713C267.752 390.218 267.207 390.846 266.799 391.562C266.391 392.278 266.129 393.068 266.027 393.886C265.926 394.704 265.988 395.533 266.209 396.327C266.43 397.121 266.806 397.864 267.315 398.511C267.825 399.159 268.457 399.7 269.177 400.102C269.896 400.504 270.688 400.76 271.506 400.855Z" fill="#524F75"/>
<path d="M574.263 566.416C588.751 568.795 610.419 570.299 639.267 570.928C641.291 577.18 644.784 581.308 649.739 583.326C657.169 586.342 670.442 592.288 679.276 589.548C688.105 586.806 694.272 583.99 698.027 570.604C701.782 557.217 697.845 543.869 691.891 538.371C685.94 532.874 673.891 529.524 666.441 528.499C661.475 527.817 655.93 529.779 649.808 534.384C622.201 524.138 601.135 516.842 586.629 512.488L549.994 498.679" fill="#70C56E"/>
<path d="M646.915 590.263L648.086 590.741L649.379 591.273C650.494 591.732 651.361 592.083 652.252 592.436C656.163 593.984 659.501 595.157 662.831 596.051C669.91 597.959 676.054 598.389 681.496 596.702C694.862 592.55 701.209 587.011 705.241 572.624C709.441 557.653 705.756 540.966 696.975 532.864C690.439 526.828 678.38 522.576 667.461 521.074C661.365 520.235 655.126 521.986 648.759 526.002C622.95 516.473 603.052 509.603 589.024 505.387L552.636 491.67C551.713 491.311 550.728 491.138 549.737 491.162C548.747 491.186 547.771 491.407 546.866 491.81C545.962 492.214 545.146 492.793 544.467 493.514C543.787 494.235 543.257 495.083 542.908 496.01C542.559 496.937 542.396 497.924 542.431 498.915C542.466 499.905 542.696 500.878 543.11 501.778C543.523 502.679 544.111 503.488 544.839 504.16C545.567 504.832 546.421 505.352 547.352 505.692L583.984 519.504L584.477 519.669C598.8 523.964 619.73 531.216 647.204 541.408C648.381 541.845 649.65 541.98 650.893 541.798C652.135 541.617 653.313 541.125 654.316 540.369C658.992 536.85 662.684 535.545 665.42 535.922C673.575 537.043 683.012 540.372 686.809 543.877C691.181 547.911 693.57 558.741 690.816 568.581C688.294 577.571 685.927 579.637 677.051 582.392C674.865 583.071 671.316 582.822 666.728 581.585C664.043 580.859 661.197 579.864 657.78 578.509C656.482 577.988 652.12 576.2 652.561 576.383C649.786 575.257 647.773 572.873 646.391 568.618C645.912 567.139 644.984 565.846 643.736 564.917C642.489 563.989 640.984 563.472 639.429 563.438C610.903 562.818 589.542 561.335 575.479 559.023C573.518 558.701 571.509 559.171 569.894 560.33C568.28 561.489 567.192 563.241 566.87 565.202C566.548 567.164 567.018 569.172 568.177 570.787C569.336 572.401 571.089 573.489 573.05 573.811C587.112 576.118 607.465 577.609 634.219 578.307C637.091 583.914 641.345 587.997 646.915 590.263Z" fill="#524F75"/>
<path d="M540.592 563.519C540.409 564.819 540.484 566.141 540.812 567.412C541.14 568.682 541.716 569.875 542.505 570.923C543.295 571.971 544.283 572.853 545.414 573.519C546.544 574.185 547.795 574.622 549.094 574.804C550.393 574.987 551.716 574.912 552.986 574.583C554.256 574.255 555.449 573.679 556.497 572.889C557.545 572.1 558.427 571.111 559.093 569.981C559.759 568.85 560.195 567.6 560.378 566.3C560.56 565.001 560.485 563.678 560.157 562.408C559.829 561.138 559.253 559.945 558.464 558.897C557.674 557.849 556.686 556.967 555.555 556.301C554.425 555.635 553.174 555.198 551.875 555.015C550.576 554.833 549.253 554.908 547.983 555.237C546.713 555.565 545.52 556.141 544.472 556.93C543.424 557.72 542.542 558.708 541.876 559.839C541.211 560.969 540.774 562.22 540.592 563.519Z" fill="#524F75"/>
<path d="M695.95 553.131L676.79 548.121C675.829 547.869 674.807 548.009 673.949 548.511C673.091 549.013 672.468 549.835 672.216 550.796C671.964 551.757 672.105 552.779 672.607 553.637C673.108 554.495 673.93 555.118 674.891 555.37L694.049 560.38C694.998 560.597 695.994 560.436 696.827 559.932C697.66 559.427 698.263 558.618 698.51 557.677C698.757 556.735 698.628 555.734 698.151 554.886C697.673 554.037 696.884 553.408 695.95 553.131ZM691.252 568.131L672.092 563.118C671.144 562.902 670.148 563.064 669.317 563.569C668.485 564.074 667.883 564.882 667.636 565.824C667.39 566.765 667.518 567.765 667.996 568.613C668.473 569.46 669.261 570.089 670.193 570.367L689.35 575.379C690.312 575.629 691.334 575.487 692.192 574.984C693.049 574.482 693.672 573.659 693.924 572.698C694.049 572.223 694.079 571.727 694.013 571.24C693.946 570.753 693.784 570.284 693.536 569.86C693.288 569.436 692.958 569.065 692.566 568.768C692.174 568.471 691.728 568.255 691.252 568.131Z" fill="#524F75"/>
</g>
<defs>
<filter id="filter0_d_47_257" x="0" y="0" width="1124" height="1124" filterUnits="userSpaceOnUse" color-interpolation-filters="sRGB">
<feFlood flood-opacity="0" result="BackgroundImageFix"/>
<feColorMatrix in="SourceAlpha" type="matrix" values="0 0 0 0 0 0 0 0 0 0 0 0 0 0 0 0 0 0 127 0" result="hardAlpha"/>
<feOffset dx="5" dy="5"/>
<feGaussianBlur stdDeviation="25"/>
<feComposite in2="hardAlpha" operator="out"/>
<feColorMatrix type="matrix" values="0 0 0 0 0 0 0 0 0 0 0 0 0 0 0 0 0 0 0.25 0"/>
<feBlend mode="normal" in2="BackgroundImageFix" result="effect1_dropShadow_47_257"/>
<feBlend mode="normal" in="SourceGraphic" in2="effect1_dropShadow_47_257" result="shape"/>
</filter>
</defs>
</svg>
