<svg width="128" height="128" viewBox="0 0 128 128" fill="none" xmlns="http://www.w3.org/2000/svg">
<path d="M36.2127 14.0032H91.5686C94.582 13.952 97.5739 14.5188 100.36 15.6688C103.145 16.8188 105.666 18.5275 107.766 20.6894C109.865 22.8514 111.5 25.4207 112.568 28.2388C113.636 31.057 114.116 34.0641 113.976 37.0747V91.0643C114.083 94.0608 113.578 97.0476 112.493 99.8428C111.408 102.638 109.766 105.183 107.666 107.323C105.566 109.463 103.053 111.154 100.278 112.291C97.5042 113.429 94.5275 113.99 91.5296 113.941L35.2367 113.902C29.554 113.602 24.2019 111.137 20.281 107.013C16.3601 102.888 14.1682 97.4186 14.1562 91.728V36.2158C14.1554 30.571 16.3075 25.1384 20.1737 21.0255C24.04 16.9126 29.3293 14.4291 34.9634 14.0813C35.3538 14.0032 35.7832 14.0032 36.2127 14.0032Z" fill="url(#paint0_linear_120_33)"/>
<path d="M98.3223 95.7489C97.1641 93.893 95.6195 92.3085 93.7938 91.1034C92.2323 90.0493 90.3975 89.3857 88.5237 89.3076C87.1964 89.2295 85.8691 89.4638 84.6199 89.9322C83.3676 90.3957 82.1536 90.9569 80.9894 91.6108C79.623 92.3135 78.2567 93.0162 76.8123 93.6018C75.0946 94.3045 73.2989 94.851 71.4641 95.2414C69.172 95.656 66.844 95.8391 64.5153 95.7879C53.4 95.5743 42.7208 91.4244 34.3779 84.0765C31.039 81.1686 28.0518 77.8801 25.4772 74.2779C25.0506 73.6903 24.6595 73.0776 24.3061 72.4432L14 61.3173V36.1378C13.9949 33.2328 14.5626 30.3554 15.6707 27.6702C16.7788 24.9849 18.4056 22.5445 20.4579 20.4886C22.5101 18.4327 24.9477 16.8017 27.631 15.6888C30.3143 14.576 33.1907 14.0032 36.0956 14.0032H55.8098L70.41 28.8376C103.358 51.2455 92.7008 75.9566 92.7008 75.9566C92.7008 75.9566 102.07 86.4969 98.3223 95.7489Z" fill="url(#paint1_linear_120_33)"/>
<path d="M70.4881 28.8376C103.436 51.2455 92.7788 75.9566 92.7788 75.9566C92.7788 75.9566 102.148 86.5359 98.3613 95.7879C98.3613 95.7879 94.4965 89.3076 88.0162 89.3076C81.7701 89.3076 78.1005 95.7879 65.5302 95.7879C37.54 95.7879 24.306 72.4041 24.306 72.4041C49.5246 88.9953 66.7404 77.2448 66.7404 77.2448C55.3803 70.6474 31.2158 39.1047 31.2158 39.1047C52.2573 57.0231 61.3532 61.7467 61.3532 61.7467C55.9269 57.2574 40.702 35.318 40.702 35.318C52.8819 47.654 77.0855 64.8698 77.0855 64.8698C83.9562 45.8192 70.4881 28.8376 70.4881 28.8376Z" fill="white"/>
<defs>
<linearGradient id="paint0_linear_120_33" x1="73.455" y1="10.4898" x2="54.5606" y2="117.571" gradientUnits="userSpaceOnUse">
<stop stop-color="#FAAE42"/>
<stop offset="1" stop-color="#EF3E31"/>
</linearGradient>
<linearGradient id="paint1_linear_120_33" x1="64.9837" y1="15.6037" x2="51.1643" y2="93.9922" gradientUnits="userSpaceOnUse">
<stop stop-color="#E39F3A"/>
<stop offset="1" stop-color="#D33929"/>
</linearGradient>
</defs>
</svg>
