<svg width="128" height="128" viewBox="0 0 128 128" fill="none" xmlns="http://www.w3.org/2000/svg">
<path d="M92.4694 114H35.5306C23.6389 114 14 104.361 14 92.4694V62.525L55.6667 14H92.4667C104.361 14 114 23.6389 114 35.5306V92.4667C114 104.361 104.361 114 92.4694 114Z" fill="url(#paint0_radial_120_55)"/>
<path d="M55.6667 14L14 62.525C26.0139 78.5 55.1472 89.6917 74.2444 72.1583C85.3556 58.2694 78.9333 35.525 70.5972 28.0611C66.4111 24.3111 61.4 18.9167 55.6667 14Z" fill="#1A5CF9"/>
<path d="M55.6667 14L14 57.5639V62.525C28.1083 73.5056 50.125 77.8306 65.5639 63.6528C76.675 49.7639 70.2528 27.0194 61.9167 19.5556C60.1472 17.9722 58.0222 16.0417 55.6667 14Z" fill="#21AAF5"/>
<path d="M14 48.6583V57.5639C27.0167 63.05 42.6528 63.025 54.4528 52.1944C63.4083 41 61.3139 24.0611 55.6667 14H46.9167L14 48.6583Z" fill="#25E0F2"/>
<path d="M35.5306 14C23.6389 14 14 23.6389 14 35.5306V48.6583C23.6556 49.7194 33.5972 47.3833 41.7194 39.925C47.6056 32.5667 48.5528 22.7361 46.9167 14H35.5306Z" fill="#18FFFF"/>
<path d="M32.3556 38.6389C32.3556 38.6389 51.3361 67.325 67.2945 77.0278C61.2556 78.9695 48.1445 86.9028 25.2834 72.8833C31.1056 80.8639 41.4139 96.8695 66.6473 95.3611C75.4889 94.9306 80.8806 92.125 85.8417 90.1861C90.8028 88.2472 95.5473 88.4611 99.6445 95.7945C100.508 89.1083 100.722 82.8528 93.8223 75.7361C93.8223 75.7361 100.644 49.7278 71.5973 29.2056C77.6361 41.2833 81.1334 48.0945 78.2945 64.7361C71.825 60.4222 47.9306 41.1806 42.5389 34.925C46.4223 41.8278 57.5917 56.9695 61.4723 60.8528C54.5723 56.1083 32.3556 38.6389 32.3556 38.6389Z" fill="black"/>
<defs>
<radialGradient id="paint0_radial_120_55" cx="0" cy="0" r="1" gradientUnits="userSpaceOnUse" gradientTransform="translate(63.8361 9.58781) scale(151.106 91.3282)">
<stop offset="0.202" stop-color="#27F5F1"/>
<stop offset="0.29" stop-color="#25E2EE"/>
<stop offset="0.468" stop-color="#20B1E7"/>
<stop offset="0.717" stop-color="#1963DB"/>
<stop offset="0.857" stop-color="#1434D4"/>
<stop offset="1" stop-color="#0015B5"/>
</radialGradient>
</defs>
</svg>
