<svg width="128" height="128" viewBox="0 0 128 128" fill="none" xmlns="http://www.w3.org/2000/svg">
<g clip-path="url(#clip0_55_8)">
<path d="M14 64V14H114V114H14" fill="#007ACC"/>
<path d="M35.925 64.175V68.25H48.925V105.25H58.15V68.25H71.15V64.25C71.15 62 71.15 60.175 71.05 60.125C71.05 60.05 63.125 60.025 53.5 60.025L36 60.1V64.2L35.925 64.175ZM94.35 60C96.9 60.6 98.85 61.75 100.6 63.575C101.525 64.575 102.9 66.325 103 66.775C103 66.925 98.675 69.85 96.05 71.475C95.95 71.55 95.55 71.125 95.15 70.475C93.85 68.625 92.525 67.825 90.45 67.675C87.45 67.475 85.45 69.05 85.45 71.675C85.45 72.475 85.6 72.925 85.9 73.575C86.575 74.95 87.825 75.775 91.7 77.475C98.85 80.55 101.95 82.575 103.825 85.475C105.95 88.725 106.425 93.825 105 97.65C103.4 101.825 99.5 104.65 93.925 105.575C92.175 105.875 88.175 105.825 86.3 105.5C82.3 104.75 78.475 102.75 76.125 100.175C75.2 99.175 73.425 96.5 73.525 96.325L74.475 95.725L78.225 93.55L81.05 91.9L81.7 92.775C82.525 94.075 84.375 95.825 85.45 96.425C88.7 98.1 93.05 97.875 95.2 95.925C96.125 95.075 96.525 94.175 96.525 92.925C96.525 91.775 96.35 91.25 95.775 90.375C94.975 89.275 93.375 88.375 88.875 86.375C83.7 84.175 81.5 82.775 79.45 80.625C78.275 79.325 77.2 77.3 76.7 75.625C76.325 74.175 76.2 70.625 76.55 69.2C77.625 64.2 81.4 60.7 86.8 59.7C88.55 59.35 92.675 59.5 94.4 59.95L94.35 60Z" fill="white"/>
</g>
<defs>
<clipPath id="clip0_55_8">
<rect x="14" y="14" width="100" height="100" rx="15" fill="white"/>
</clipPath>
</defs>
</svg>
