<svg width="128" height="128" viewBox="0 0 128 128" fill="none" xmlns="http://www.w3.org/2000/svg">
<mask id="mask0_120_44" style="mask-type:luminance" maskUnits="userSpaceOnUse" x="14" y="14" width="100" height="100">
<path d="M14 14H114V114H14V14Z" fill="white"/>
</mask>
<g mask="url(#mask0_120_44)">
<mask id="mask1_120_44" style="mask-type:luminance" maskUnits="userSpaceOnUse" x="14" y="14" width="100" height="100">
<path d="M14 14H114V114H14V14Z" fill="white"/>
</mask>
<g mask="url(#mask1_120_44)">
<mask id="mask2_120_44" style="mask-type:alpha" maskUnits="userSpaceOnUse" x="14" y="14" width="101" height="100">
<path d="M32.333 98.5832L15.6672 86.0833C15.1476 85.6973 14.7259 85.1946 14.4364 84.6156C14.1469 84.0367 13.9976 83.3978 14.0005 82.7505V45.2501C13.9978 44.6029 14.1472 43.9642 14.4367 43.3853C14.7262 42.8065 15.1477 42.3038 15.6672 41.9179L32.333 29.4174C31.8854 29.8378 31.5472 30.3611 31.3477 30.9419C31.1482 31.5227 31.0935 32.1434 31.1883 32.7502V95.2504C31.0936 95.8571 31.1483 96.4778 31.3478 97.0586C31.5473 97.6394 31.8855 98.1627 32.333 98.5832Z" fill="white"/>
<path d="M112.146 31.355C111.459 30.904 110.655 30.6649 109.833 30.6676C109.301 30.6632 108.773 30.7639 108.279 30.9639C107.786 31.164 107.337 31.4594 106.958 31.8333L106.667 32.1252L73.4173 64.0004L55.0207 81.646L38.0002 97.9582L37.7083 98.2506C37.3295 98.6248 36.8805 98.9204 36.3872 99.1207C35.8938 99.3209 35.3658 99.4218 34.8334 99.4175C33.9318 99.4159 33.0549 99.1234 32.3331 98.5833L15.6672 86.0833C16.514 86.7194 17.5713 87.0088 18.624 86.8927C19.6766 86.7765 20.6455 86.2636 21.3332 85.4583L39.8329 63.9799L55.0207 46.3553L81.6255 15.4582C82.0116 15.0004 82.4932 14.6326 83.0366 14.3808C83.58 14.129 84.1719 13.9993 84.7708 14.0006C85.5922 13.9979 86.3964 14.237 87.0829 14.6881L112.146 31.355Z" fill="white"/>
<path d="M112.146 96.6456L87.1458 113.313C86.2953 113.868 85.2731 114.098 84.2668 113.96C83.2604 113.822 82.3375 113.326 81.6675 112.563L55.0207 81.6459L39.8329 63.9799L21.3332 42.5203C20.6394 41.723 19.6696 41.2177 18.6187 41.1059C17.5677 40.994 16.5133 41.2839 15.6672 41.9173L32.3331 29.4173C33.0548 28.8775 33.9315 28.585 34.8328 28.5831C35.3654 28.5787 35.8936 28.6795 36.3871 28.8799C36.8805 29.0802 37.3296 29.3761 37.7083 29.7506L38.0002 30.0424L55.0207 46.3552L73.4173 64.0003L106.667 95.8755L106.958 96.1673C107.337 96.5413 107.786 96.8368 108.279 97.0368C108.773 97.2369 109.301 97.3375 109.833 97.333C110.655 97.3358 111.459 97.0968 112.146 96.6456Z" fill="white"/>
<path d="M114 34.8328V93.1677C114.001 93.8553 113.832 94.5324 113.509 95.1391C113.185 95.7457 112.717 96.2632 112.146 96.6456L87.1458 113.313C87.7171 112.93 88.1853 112.412 88.5087 111.805C88.8321 111.198 89.0009 110.521 89.0001 109.833V18.1676C88.991 17.4747 88.8114 16.7947 88.477 16.1878C88.1426 15.5809 87.6638 15.0658 87.0829 14.688L112.146 31.3549C112.715 31.7389 113.183 32.2568 113.506 32.8631C113.829 33.4694 113.999 34.1457 114 34.8328Z" fill="white"/>
</mask>
<g mask="url(#mask2_120_44)">
<path d="M32.333 98.5832L15.6672 86.0833C15.1478 85.6971 14.7264 85.1943 14.4369 84.6154C14.1474 84.0365 13.9979 83.3977 14.0005 82.7505V45.2501C13.9978 44.6029 14.1472 43.9642 14.4367 43.3853C14.7262 42.8065 15.1477 42.3038 15.6672 41.9179L32.333 29.4174C31.8854 29.8378 31.5472 30.3611 31.3477 30.9419C31.1482 31.5227 31.0935 32.1434 31.1883 32.7502V95.2504C31.0936 95.8571 31.1483 96.4778 31.3478 97.0586C31.5473 97.6394 31.8855 98.1627 32.333 98.5832Z" fill="#5E438F"/>
<g filter="url(#filter0_dd_120_44)">
<path d="M112.145 31.355C111.459 30.9039 110.654 30.6648 109.833 30.6676C109.301 30.6634 108.773 30.7643 108.279 30.9643C107.786 31.1643 107.337 31.4596 106.958 31.8333L106.667 32.1252L88.9576 49.1049L73.4173 64.0004L55.0202 81.646L38.0002 97.9582L37.7077 98.2506C37.3289 98.6248 36.88 98.9204 36.3866 99.1207C35.8933 99.3209 35.3652 99.4218 34.8328 99.4175C33.9315 99.4158 33.0548 99.1232 32.3331 98.5833L15.6672 86.0833C16.514 86.7192 17.5712 87.0085 18.6237 86.8924C19.6762 86.7763 20.6449 86.2634 21.3326 85.4583L30.6669 74.6256L39.8329 63.9799L55.0207 46.3553L81.6249 15.4582C82.0113 15.0008 82.493 14.6333 83.0363 14.3815C83.5796 14.1297 84.1714 13.9998 84.7702 14.0006C85.5918 13.9979 86.3961 14.237 87.0829 14.6881L112.145 31.355Z" fill="url(#paint0_linear_120_44)"/>
</g>
<g filter="url(#filter1_dd_120_44)">
<path d="M112.145 96.6457L87.1453 113.313C86.2949 113.869 85.2726 114.099 84.2663 113.961C83.26 113.823 82.3372 113.327 81.6675 112.563L55.0207 81.646L39.8329 63.9799L30.6675 53.3552L21.3326 42.5209C20.6388 41.7238 19.6692 41.2186 18.6185 41.1066C17.5677 40.9947 16.5134 41.2843 15.6672 41.9173L32.3325 29.418C33.0542 28.8781 33.9309 28.5856 34.8322 28.5838C35.3647 28.5793 35.8929 28.6801 36.3863 28.8804C36.8797 29.0808 37.3286 29.3767 37.7072 29.7512L37.9996 30.043L55.0196 46.3558L73.4173 64.0003L88.9797 78.9178L106.667 95.8755L106.958 96.1679C107.724 96.922 108.758 97.3411 109.833 97.3331C110.654 97.3359 111.459 97.0969 112.145 96.6457Z" fill="url(#paint1_linear_120_44)"/>
</g>
<g filter="url(#filter2_dd_120_44)">
<path d="M114 34.8328V93.1672C114.001 93.8548 113.832 94.5319 113.509 95.1386C113.185 95.7454 112.717 96.263 112.146 96.6456L87.1452 113.313C87.7166 112.93 88.1847 112.412 88.5082 111.805C88.8318 111.198 89.0007 110.521 89.0001 109.833V18.1676C88.991 17.4747 88.8114 16.7947 88.477 16.1878C88.1426 15.5809 87.6638 15.0658 87.0829 14.688L112.146 31.3549C112.715 31.7393 113.182 32.2571 113.505 32.8634C113.829 33.4696 113.999 34.1458 114 34.8328Z" fill="url(#paint2_linear_120_44)"/>
</g>
</g>
</g>
</g>
<defs>
<filter id="filter0_dd_120_44" x="10.4872" y="10.1156" width="106.838" height="95.777" filterUnits="userSpaceOnUse" color-interpolation-filters="sRGB">
<feFlood flood-opacity="0" result="BackgroundImageFix"/>
<feColorMatrix in="SourceAlpha" type="matrix" values="0 0 0 0 0 0 0 0 0 0 0 0 0 0 0 0 0 0 127 0" result="hardAlpha"/>
<feOffset dy="0.246"/>
<feGaussianBlur stdDeviation="0.246"/>
<feColorMatrix type="matrix" values="0 0 0 0 0 0 0 0 0 0 0 0 0 0 0 0 0 0 0.24 0"/>
<feBlend mode="normal" in2="BackgroundImageFix" result="effect1_dropShadow_120_44"/>
<feColorMatrix in="SourceAlpha" type="matrix" values="0 0 0 0 0 0 0 0 0 0 0 0 0 0 0 0 0 0 127 0" result="hardAlpha"/>
<feOffset dy="1.295"/>
<feGaussianBlur stdDeviation="2.59"/>
<feColorMatrix type="matrix" values="0 0 0 0 0 0 0 0 0 0 0 0 0 0 0 0 0 0 0.22 0"/>
<feBlend mode="normal" in2="effect1_dropShadow_120_44" result="effect2_dropShadow_120_44"/>
<feBlend mode="normal" in="SourceGraphic" in2="effect2_dropShadow_120_44" result="shape"/>
</filter>
<filter id="filter1_dd_120_44" x="10.4872" y="24.6986" width="106.838" height="95.7761" filterUnits="userSpaceOnUse" color-interpolation-filters="sRGB">
<feFlood flood-opacity="0" result="BackgroundImageFix"/>
<feColorMatrix in="SourceAlpha" type="matrix" values="0 0 0 0 0 0 0 0 0 0 0 0 0 0 0 0 0 0 127 0" result="hardAlpha"/>
<feOffset dy="0.246"/>
<feGaussianBlur stdDeviation="0.246"/>
<feColorMatrix type="matrix" values="0 0 0 0 0 0 0 0 0 0 0 0 0 0 0 0 0 0 0.24 0"/>
<feBlend mode="normal" in2="BackgroundImageFix" result="effect1_dropShadow_120_44"/>
<feColorMatrix in="SourceAlpha" type="matrix" values="0 0 0 0 0 0 0 0 0 0 0 0 0 0 0 0 0 0 127 0" result="hardAlpha"/>
<feOffset dy="1.295"/>
<feGaussianBlur stdDeviation="2.59"/>
<feColorMatrix type="matrix" values="0 0 0 0 0 0 0 0 0 0 0 0 0 0 0 0 0 0 0.22 0"/>
<feBlend mode="normal" in2="effect1_dropShadow_120_44" result="effect2_dropShadow_120_44"/>
<feBlend mode="normal" in="SourceGraphic" in2="effect2_dropShadow_120_44" result="shape"/>
</filter>
<filter id="filter2_dd_120_44" x="71.5409" y="-0.854012" width="58.0016" height="129.709" filterUnits="userSpaceOnUse" color-interpolation-filters="sRGB">
<feFlood flood-opacity="0" result="BackgroundImageFix"/>
<feColorMatrix in="SourceAlpha" type="matrix" values="0 0 0 0 0 0 0 0 0 0 0 0 0 0 0 0 0 0 127 0" result="hardAlpha"/>
<feOffset/>
<feGaussianBlur stdDeviation="0.13"/>
<feColorMatrix type="matrix" values="0 0 0 0 0 0 0 0 0 0 0 0 0 0 0 0 0 0 0.24 0"/>
<feBlend mode="normal" in2="BackgroundImageFix" result="effect1_dropShadow_120_44"/>
<feColorMatrix in="SourceAlpha" type="matrix" values="0 0 0 0 0 0 0 0 0 0 0 0 0 0 0 0 0 0 127 0" result="hardAlpha"/>
<feOffset/>
<feGaussianBlur stdDeviation="7.771"/>
<feColorMatrix type="matrix" values="0 0 0 0 0 0 0 0 0 0 0 0 0 0 0 0 0 0 0.3 0"/>
<feBlend mode="normal" in2="effect1_dropShadow_120_44" result="effect2_dropShadow_120_44"/>
<feBlend mode="normal" in="SourceGraphic" in2="effect2_dropShadow_120_44" result="shape"/>
</filter>
<linearGradient id="paint0_linear_120_44" x1="95.2498" y1="14.0001" x2="20.9949" y2="88.7361" gradientUnits="userSpaceOnUse">
<stop stop-color="#7252AA"/>
<stop offset="1" stop-color="#7252AA"/>
</linearGradient>
<linearGradient id="paint1_linear_120_44" x1="23.3751" y1="32.2288" x2="93.1666" y2="110.353" gradientUnits="userSpaceOnUse">
<stop stop-color="#AE7FE2"/>
<stop offset="1" stop-color="#9A70D4"/>
</linearGradient>
<linearGradient id="paint2_linear_120_44" x1="100.245" y1="12.6767" x2="100.245" y2="113.229" gradientUnits="userSpaceOnUse">
<stop stop-color="#D59DFF"/>
<stop offset="1" stop-color="#C18EF1"/>
</linearGradient>
</defs>
</svg>
