<svg width="128" height="128" viewBox="0 0 128 128" fill="none" xmlns="http://www.w3.org/2000/svg">
<g clip-path="url(#clip0_52_114)">
<path d="M110.147 24.4972L89.6223 14.6152C88.4632 14.0571 87.1592 13.8732 85.8909 14.0887C84.6226 14.3042 83.4527 14.9087 82.543 15.8183L15.3539 77.0789C13.5469 78.7269 13.5492 81.5718 15.3586 83.2172L20.8469 88.2062C21.5639 88.8581 22.4864 89.2386 23.4545 89.2817C24.4226 89.3248 25.3752 89.0278 26.1473 88.4422L107.058 27.0609C109.773 25.0019 113.672 26.9379 113.672 30.3449V30.1066C113.671 28.9346 113.341 27.7864 112.717 26.7941C112.093 25.8018 111.202 25.0057 110.147 24.4972Z" fill="#0065A9"/>
<path d="M110.147 102.6L89.6223 112.482C88.4631 113.04 87.1592 113.224 85.891 113.008C84.6227 112.793 83.4528 112.188 82.543 111.279L15.3539 50.0184C13.5469 48.3707 13.5492 45.5254 15.3586 43.8805L20.8469 38.891C21.5639 38.2392 22.4865 37.8588 23.4545 37.8157C24.4226 37.7727 25.3753 38.0698 26.1473 38.6555L107.058 100.036C109.773 102.095 113.672 100.159 113.672 96.752V96.9907C113.671 98.1626 113.341 99.3108 112.717 100.303C112.093 101.295 111.202 102.092 110.147 102.6Z" fill="#007ACC"/>
<path d="M89.5578 112.49C88.3984 113.047 87.0943 113.231 85.8259 113.015C84.5576 112.8 83.3876 112.195 82.4777 111.285C84.775 113.582 88.7035 111.955 88.7035 108.706V18.4035C88.7035 15.1543 84.775 13.5273 82.4777 15.8246C83.3875 14.9148 84.5575 14.3102 85.8259 14.0944C87.0942 13.8786 88.3983 14.0622 89.5578 14.6199L110.079 24.4882C111.135 24.9964 112.027 25.7925 112.651 26.7851C113.275 27.7777 113.606 28.9263 113.606 30.0988V97.0117C113.606 99.4042 112.235 101.586 110.079 102.622L89.5578 112.49Z" fill="#1F9CF0"/>
</g>
<defs>
<clipPath id="clip0_52_114">
<rect width="100" height="99.2188" fill="white" transform="translate(14 14)"/>
</clipPath>
</defs>
</svg>
